<?xml version="1.0" encoding="UTF-8" standalone="no"?>
<!DOCTYPE svg PUBLIC "-//W3C//DTD SVG 1.1//EN" "http://www.w3.org/Graphics/SVG/1.1/DTD/svg11.dtd">
<svg width="100%" height="100%" viewBox="0 0 453 168" version="1.1" xmlns="http://www.w3.org/2000/svg" xmlns:xlink="http://www.w3.org/1999/xlink" xml:space="preserve" xmlns:serif="http://www.serif.com/" style="fill-rule:evenodd;clip-rule:evenodd;stroke-linejoin:round;stroke-miterlimit:2;">
    <g transform="matrix(1.12025,0,0,1.03414,-34.4497,-10.7353)">
        <g transform="matrix(212.737,0,0,212.737,21.9883,168)">
            <path d="M0.041,-0.114L0.041,-0.267L0.334,-0.727L0.473,-0.727L0.473,-0.523L0.393,-0.523L0.236,-0.273L0.236,-0.267L0.668,-0.267L0.668,-0.114L0.041,-0.114ZM0.395,-0L0.395,-0.161L0.399,-0.227L0.399,-0.727L0.584,-0.727L0.584,-0L0.395,-0Z" style="fill:rgb(9,163,199);fill-rule:nonzero;"/>
        </g>
        <g transform="matrix(212.737,0,0,212.737,158.575,168)">
            <path d="M0.365,0.02C0.299,0.02 0.242,0.004 0.194,-0.026C0.146,-0.056 0.109,-0.1 0.083,-0.157C0.057,-0.214 0.044,-0.282 0.044,-0.362C0.044,-0.442 0.057,-0.51 0.083,-0.566C0.109,-0.622 0.146,-0.664 0.194,-0.694C0.242,-0.723 0.299,-0.737 0.365,-0.737C0.431,-0.737 0.488,-0.723 0.536,-0.693C0.584,-0.664 0.621,-0.622 0.647,-0.566C0.673,-0.51 0.686,-0.442 0.686,-0.362C0.686,-0.282 0.673,-0.213 0.647,-0.156C0.621,-0.099 0.584,-0.056 0.536,-0.025C0.488,0.005 0.431,0.02 0.365,0.02ZM0.365,-0.141C0.399,-0.141 0.427,-0.158 0.449,-0.194C0.471,-0.23 0.482,-0.286 0.482,-0.362C0.482,-0.412 0.477,-0.453 0.467,-0.485C0.457,-0.516 0.443,-0.54 0.425,-0.555C0.408,-0.57 0.388,-0.578 0.365,-0.578C0.331,-0.578 0.303,-0.561 0.282,-0.526C0.26,-0.492 0.249,-0.437 0.249,-0.362C0.248,-0.311 0.253,-0.269 0.263,-0.237C0.273,-0.204 0.287,-0.18 0.305,-0.164C0.322,-0.148 0.342,-0.141 0.365,-0.141Z" style="fill:rgb(9,163,199);fill-rule:nonzero;"/>
        </g>
        <g transform="matrix(212.737,0,0,212.737,300.046,168)">
            <path d="M0.332,0.01C0.275,0.01 0.224,0 0.18,-0.02C0.135,-0.039 0.101,-0.067 0.075,-0.102C0.05,-0.136 0.037,-0.176 0.037,-0.222L0.236,-0.222C0.236,-0.208 0.24,-0.195 0.249,-0.184C0.257,-0.173 0.269,-0.165 0.283,-0.158C0.298,-0.152 0.315,-0.149 0.334,-0.149C0.352,-0.149 0.368,-0.152 0.382,-0.159C0.396,-0.165 0.407,-0.174 0.415,-0.186C0.423,-0.198 0.426,-0.211 0.426,-0.226C0.426,-0.241 0.422,-0.254 0.413,-0.265C0.404,-0.276 0.391,-0.285 0.375,-0.292C0.358,-0.298 0.339,-0.301 0.318,-0.301L0.244,-0.301L0.244,-0.438L0.318,-0.438C0.338,-0.438 0.355,-0.441 0.37,-0.447C0.385,-0.453 0.397,-0.462 0.405,-0.474C0.414,-0.485 0.418,-0.498 0.418,-0.513C0.418,-0.527 0.414,-0.54 0.407,-0.55C0.4,-0.561 0.39,-0.57 0.378,-0.576C0.365,-0.582 0.35,-0.585 0.334,-0.585C0.316,-0.585 0.3,-0.582 0.286,-0.576C0.272,-0.569 0.261,-0.56 0.252,-0.549C0.244,-0.538 0.24,-0.525 0.24,-0.51L0.051,-0.51C0.051,-0.554 0.064,-0.594 0.088,-0.628C0.112,-0.662 0.145,-0.689 0.188,-0.708C0.23,-0.728 0.279,-0.737 0.334,-0.737C0.388,-0.737 0.435,-0.728 0.476,-0.71C0.518,-0.692 0.55,-0.667 0.573,-0.635C0.597,-0.603 0.608,-0.567 0.608,-0.526C0.608,-0.485 0.595,-0.451 0.566,-0.425C0.538,-0.399 0.502,-0.384 0.459,-0.379L0.459,-0.374C0.518,-0.367 0.562,-0.349 0.591,-0.32C0.621,-0.29 0.635,-0.253 0.635,-0.209C0.635,-0.166 0.622,-0.128 0.597,-0.096C0.571,-0.063 0.535,-0.037 0.49,-0.018C0.444,0.001 0.392,0.01 0.332,0.01Z" style="fill:rgb(9,163,199);fill-rule:nonzero;"/>
        </g>
    </g>
</svg>
