<?xml version="1.0" encoding="UTF-8" standalone="no"?>
<!DOCTYPE svg PUBLIC "-//W3C//DTD SVG 1.1//EN" "http://www.w3.org/Graphics/SVG/1.1/DTD/svg11.dtd">
<svg width="100%" height="100%" viewBox="0 0 453 168" version="1.1" xmlns="http://www.w3.org/2000/svg" xmlns:xlink="http://www.w3.org/1999/xlink" xml:space="preserve" xmlns:serif="http://www.serif.com/" style="fill-rule:evenodd;clip-rule:evenodd;stroke-linejoin:round;stroke-miterlimit:2;">
    <g transform="matrix(1.11609,0,0,1.03414,-36.6824,-10.7353)">
        <g transform="matrix(212.737,0,0,212.737,21.9883,168)">
            <path d="M0.339,0.01C0.284,0.01 0.234,0 0.191,-0.02C0.148,-0.039 0.114,-0.067 0.089,-0.102C0.064,-0.136 0.052,-0.176 0.051,-0.222L0.243,-0.222C0.244,-0.196 0.253,-0.176 0.272,-0.162C0.291,-0.147 0.313,-0.139 0.339,-0.139C0.36,-0.139 0.377,-0.144 0.393,-0.152C0.408,-0.161 0.42,-0.173 0.429,-0.189C0.438,-0.205 0.442,-0.223 0.442,-0.244C0.442,-0.266 0.438,-0.284 0.429,-0.3C0.42,-0.316 0.408,-0.328 0.393,-0.336C0.377,-0.345 0.36,-0.349 0.339,-0.349C0.319,-0.349 0.299,-0.344 0.282,-0.334C0.264,-0.324 0.251,-0.31 0.243,-0.293L0.07,-0.327L0.098,-0.727L0.587,-0.727L0.587,-0.57L0.26,-0.57L0.246,-0.409L0.25,-0.409C0.261,-0.431 0.281,-0.449 0.309,-0.464C0.337,-0.479 0.369,-0.486 0.406,-0.486C0.45,-0.486 0.488,-0.476 0.522,-0.456C0.556,-0.435 0.583,-0.408 0.603,-0.372C0.623,-0.337 0.632,-0.296 0.632,-0.25C0.632,-0.199 0.62,-0.154 0.596,-0.115C0.572,-0.076 0.538,-0.045 0.494,-0.023C0.45,-0.001 0.399,0.01 0.339,0.01Z" style="fill:rgb(9,163,199);fill-rule:nonzero;"/>
        </g>
        <g transform="matrix(212.737,0,0,212.737,151.323,168)">
            <path d="M0.365,0.02C0.299,0.02 0.242,0.004 0.194,-0.026C0.146,-0.056 0.109,-0.1 0.083,-0.157C0.057,-0.214 0.044,-0.282 0.044,-0.362C0.044,-0.442 0.057,-0.51 0.083,-0.566C0.109,-0.622 0.146,-0.664 0.194,-0.694C0.242,-0.723 0.299,-0.737 0.365,-0.737C0.431,-0.737 0.488,-0.723 0.536,-0.693C0.584,-0.664 0.621,-0.622 0.647,-0.566C0.673,-0.51 0.686,-0.442 0.686,-0.362C0.686,-0.282 0.673,-0.213 0.647,-0.156C0.621,-0.099 0.584,-0.056 0.536,-0.025C0.488,0.005 0.431,0.02 0.365,0.02ZM0.365,-0.141C0.399,-0.141 0.427,-0.158 0.449,-0.194C0.471,-0.23 0.482,-0.286 0.482,-0.362C0.482,-0.412 0.477,-0.453 0.467,-0.485C0.457,-0.516 0.443,-0.54 0.425,-0.555C0.408,-0.57 0.388,-0.578 0.365,-0.578C0.331,-0.578 0.303,-0.561 0.282,-0.526C0.26,-0.492 0.249,-0.437 0.249,-0.362C0.248,-0.311 0.253,-0.269 0.263,-0.237C0.273,-0.204 0.287,-0.18 0.305,-0.164C0.322,-0.148 0.342,-0.141 0.365,-0.141Z" style="fill:rgb(9,163,199);fill-rule:nonzero;"/>
        </g>
        <g transform="matrix(212.737,0,0,212.737,292.793,168)">
            <path d="M0.365,0.02C0.299,0.02 0.242,0.004 0.194,-0.026C0.146,-0.056 0.109,-0.1 0.083,-0.157C0.057,-0.214 0.044,-0.282 0.044,-0.362C0.044,-0.442 0.057,-0.51 0.083,-0.566C0.109,-0.622 0.146,-0.664 0.194,-0.694C0.242,-0.723 0.299,-0.737 0.365,-0.737C0.431,-0.737 0.488,-0.723 0.536,-0.693C0.584,-0.664 0.621,-0.622 0.647,-0.566C0.673,-0.51 0.686,-0.442 0.686,-0.362C0.686,-0.282 0.673,-0.213 0.647,-0.156C0.621,-0.099 0.584,-0.056 0.536,-0.025C0.488,0.005 0.431,0.02 0.365,0.02ZM0.365,-0.141C0.399,-0.141 0.427,-0.158 0.449,-0.194C0.471,-0.23 0.482,-0.286 0.482,-0.362C0.482,-0.412 0.477,-0.453 0.467,-0.485C0.457,-0.516 0.443,-0.54 0.425,-0.555C0.408,-0.57 0.388,-0.578 0.365,-0.578C0.331,-0.578 0.303,-0.561 0.282,-0.526C0.26,-0.492 0.249,-0.437 0.249,-0.362C0.248,-0.311 0.253,-0.269 0.263,-0.237C0.273,-0.204 0.287,-0.18 0.305,-0.164C0.322,-0.148 0.342,-0.141 0.365,-0.141Z" style="fill:rgb(9,163,199);fill-rule:nonzero;"/>
        </g>
    </g>
</svg>
