<?xml version="1.0" encoding="UTF-8" standalone="no"?>
<!DOCTYPE svg PUBLIC "-//W3C//DTD SVG 1.1//EN" "http://www.w3.org/Graphics/SVG/1.1/DTD/svg11.dtd">
<svg width="100%" height="100%" viewBox="0 0 453 168" version="1.1" xmlns="http://www.w3.org/2000/svg" xmlns:xlink="http://www.w3.org/1999/xlink" xml:space="preserve" xmlns:serif="http://www.serif.com/" style="fill-rule:evenodd;clip-rule:evenodd;stroke-linejoin:round;stroke-miterlimit:2;">
    <g transform="matrix(1.09091,0,0,1.03414,-33.5473,-10.7353)">
        <g transform="matrix(212.737,0,0,212.737,21.9883,168)">
            <path d="M0.041,-0.114L0.041,-0.267L0.334,-0.727L0.473,-0.727L0.473,-0.523L0.393,-0.523L0.236,-0.273L0.236,-0.267L0.668,-0.267L0.668,-0.114L0.041,-0.114ZM0.395,-0L0.395,-0.161L0.399,-0.227L0.399,-0.727L0.584,-0.727L0.584,-0L0.395,-0Z" style="fill:rgb(9,163,199);fill-rule:nonzero;"/>
        </g>
        <g transform="matrix(212.737,0,0,212.737,158.575,168)">
            <path d="M0.365,0.02C0.299,0.02 0.242,0.004 0.194,-0.026C0.146,-0.056 0.109,-0.1 0.083,-0.157C0.057,-0.214 0.044,-0.282 0.044,-0.362C0.044,-0.442 0.057,-0.51 0.083,-0.566C0.109,-0.622 0.146,-0.664 0.194,-0.694C0.242,-0.723 0.299,-0.737 0.365,-0.737C0.431,-0.737 0.488,-0.723 0.536,-0.693C0.584,-0.664 0.621,-0.622 0.647,-0.566C0.673,-0.51 0.686,-0.442 0.686,-0.362C0.686,-0.282 0.673,-0.213 0.647,-0.156C0.621,-0.099 0.584,-0.056 0.536,-0.025C0.488,0.005 0.431,0.02 0.365,0.02ZM0.365,-0.141C0.399,-0.141 0.427,-0.158 0.449,-0.194C0.471,-0.23 0.482,-0.286 0.482,-0.362C0.482,-0.412 0.477,-0.453 0.467,-0.485C0.457,-0.516 0.443,-0.54 0.425,-0.555C0.408,-0.57 0.388,-0.578 0.365,-0.578C0.331,-0.578 0.303,-0.561 0.282,-0.526C0.26,-0.492 0.249,-0.437 0.249,-0.362C0.248,-0.311 0.253,-0.269 0.263,-0.237C0.273,-0.204 0.287,-0.18 0.305,-0.164C0.322,-0.148 0.342,-0.141 0.365,-0.141Z" style="fill:rgb(9,163,199);fill-rule:nonzero;"/>
        </g>
        <g transform="matrix(212.737,0,0,212.737,300.046,168)">
            <path d="M0.365,0.02C0.299,0.02 0.242,0.004 0.194,-0.026C0.146,-0.056 0.109,-0.1 0.083,-0.157C0.057,-0.214 0.044,-0.282 0.044,-0.362C0.044,-0.442 0.057,-0.51 0.083,-0.566C0.109,-0.622 0.146,-0.664 0.194,-0.694C0.242,-0.723 0.299,-0.737 0.365,-0.737C0.431,-0.737 0.488,-0.723 0.536,-0.693C0.584,-0.664 0.621,-0.622 0.647,-0.566C0.673,-0.51 0.686,-0.442 0.686,-0.362C0.686,-0.282 0.673,-0.213 0.647,-0.156C0.621,-0.099 0.584,-0.056 0.536,-0.025C0.488,0.005 0.431,0.02 0.365,0.02ZM0.365,-0.141C0.399,-0.141 0.427,-0.158 0.449,-0.194C0.471,-0.23 0.482,-0.286 0.482,-0.362C0.482,-0.412 0.477,-0.453 0.467,-0.485C0.457,-0.516 0.443,-0.54 0.425,-0.555C0.408,-0.57 0.388,-0.578 0.365,-0.578C0.331,-0.578 0.303,-0.561 0.282,-0.526C0.26,-0.492 0.249,-0.437 0.249,-0.362C0.248,-0.311 0.253,-0.269 0.263,-0.237C0.273,-0.204 0.287,-0.18 0.305,-0.164C0.322,-0.148 0.342,-0.141 0.365,-0.141Z" style="fill:rgb(9,163,199);fill-rule:nonzero;"/>
        </g>
    </g>
</svg>
