<?xml version="1.0" encoding="UTF-8" standalone="no"?>
<!DOCTYPE svg PUBLIC "-//W3C//DTD SVG 1.1//EN" "http://www.w3.org/Graphics/SVG/1.1/DTD/svg11.dtd">
<svg width="100%" height="100%" viewBox="0 0 602 630" version="1.1" xmlns="http://www.w3.org/2000/svg" xmlns:xlink="http://www.w3.org/1999/xlink" xml:space="preserve" xmlns:serif="http://www.serif.com/" style="fill-rule:evenodd;clip-rule:evenodd;stroke-linejoin:round;stroke-miterlimit:2;">
    <g transform="matrix(0.689534,-0.724253,0.724253,0.689534,-245.068,491.487)">
        <rect x="756.964" y="195.507" width="1.672" height="109.196" style="fill:rgb(230,230,230);"/>
    </g>
    <path d="M498.845,143.982L497.175,144.083L497.679,152.309L489.437,152.21L489.419,153.882L499.457,154.001L498.845,143.982Z" style="fill:rgb(230,230,230);fill-rule:nonzero;"/>
    <path d="M427.781,76.326L427.763,77.998L419.522,77.899L420.026,86.125L418.355,86.226L417.745,76.206L427.781,76.326Z" style="fill:rgb(230,230,230);fill-rule:nonzero;"/>
    <circle cx="458.6" cy="115.105" r="9.193" style="fill:rgb(230,230,230);"/>
    <g transform="matrix(0.724253,-0.689534,0.689534,0.724253,-349.259,240.031)">
        <rect x="389.274" y="249.269" width="109.196" height="1.672" style="fill:rgb(230,230,230);"/>
    </g>
    <path d="M103.815,154.001L113.853,153.882L113.834,152.21L105.593,152.309L106.097,144.083L104.427,143.982L103.815,154.001Z" style="fill:rgb(230,230,230);fill-rule:nonzero;"/>
    <path d="M185.527,76.206L184.916,86.226L183.246,86.125L183.749,77.899L175.508,77.998L175.49,76.326L185.527,76.206Z" style="fill:rgb(230,230,230);fill-rule:nonzero;"/>
    <circle cx="144.672" cy="115.105" r="9.193" style="fill:rgb(230,230,230);"/>
    <g transform="matrix(1,0,0,1,-299.2,-135)">
        <path d="M669.364,325.543L530.636,325.543C526.511,325.538 523.119,322.146 523.114,318.021L523.114,142.521C523.119,138.397 526.511,135.005 530.636,135L669.364,135C673.489,135.005 676.881,138.397 676.886,142.521L676.886,318.021C676.881,322.146 673.489,325.538 669.364,325.543ZM530.636,136.671C527.428,136.675 524.789,139.314 524.786,142.521L524.786,318.021C524.789,321.229 527.428,323.868 530.636,323.871L669.364,323.871C672.572,323.868 675.211,321.229 675.214,318.021L675.214,142.521C675.211,139.314 672.572,136.675 669.364,136.671L530.636,136.671Z" style="fill:rgb(63,61,86);fill-rule:nonzero;"/>
    </g>
    <g transform="matrix(1,0,0,1,-299.2,-135)">
        <path d="M588.46,219.358L557.923,219.358C555.861,219.356 554.164,217.66 554.162,215.598L554.162,179.562C554.164,177.5 555.861,175.804 557.923,175.801L588.46,175.801C590.522,175.804 592.218,177.5 592.221,179.562L592.221,215.598C592.218,217.66 590.522,219.356 588.46,219.358Z" style="fill:rgb(9,163,199);fill-rule:nonzero;"/>
    </g>
    <g transform="matrix(1,0,0,1,-299.2,-135)">
        <path d="M647.796,236.073L617.259,236.073C615.196,236.07 613.5,234.374 613.498,232.312L613.498,196.276C613.5,194.214 615.196,192.518 617.259,192.516L647.796,192.516C649.858,192.518 651.554,194.214 651.556,196.276L651.556,232.312C651.554,234.374 649.858,236.07 647.796,236.073Z" style="fill:rgb(204,204,204);fill-rule:nonzero;"/>
    </g>
    <g transform="matrix(1,0,0,1,-299.2,-135)">
        <path d="M600.16,287.051L569.623,287.051C567.561,287.049 565.864,285.353 565.862,283.291L565.862,247.255C565.864,245.193 567.561,243.496 569.623,243.494L600.16,243.494C602.222,243.496 603.918,245.193 603.921,247.255L603.921,283.291C603.918,285.353 602.222,287.049 600.16,287.051Z" style="fill:rgb(255,101,132);fill-rule:nonzero;"/>
    </g>
    <g transform="matrix(1,0,0,1,-299.2,-135)">
        <path d="M893.279,506L754.55,506C750.426,505.995 747.033,502.603 747.029,498.479L747.029,322.979C747.033,318.854 750.426,315.462 754.55,315.457L893.279,315.457C897.403,315.462 900.795,318.854 900.8,322.979L900.8,498.479C900.795,502.603 897.403,505.995 893.279,506ZM754.55,317.129C751.342,317.132 748.704,319.771 748.7,322.979L748.7,498.479C748.704,501.686 751.342,504.325 754.55,504.329L893.279,504.329C896.486,504.325 899.125,501.686 899.129,498.479L899.129,322.979C899.125,319.771 896.486,317.132 893.279,317.129L754.55,317.129Z" style="fill:rgb(63,61,86);fill-rule:nonzero;"/>
    </g>
    <g transform="matrix(1,0,0,1,-299.2,-135)">
        <path d="M847.732,354.318L800.096,354.318C798.263,354.318 796.754,352.809 796.754,350.975C796.754,349.141 798.263,347.632 800.096,347.632L847.732,347.632C849.566,347.632 851.075,349.141 851.075,350.975C851.075,352.809 849.566,354.318 847.732,354.318Z" style="fill:rgb(9,163,199);fill-rule:nonzero;"/>
    </g>
    <g transform="matrix(1,0,0,1,-299.2,-135)">
        <path d="M871.132,386.075L776.696,386.075C776.695,386.075 776.693,386.075 776.691,386.075C774.857,386.075 773.348,384.566 773.348,382.732C773.348,380.898 774.857,379.389 776.691,379.389C776.693,379.389 776.695,379.389 776.696,379.389L871.132,379.389C871.134,379.389 871.136,379.389 871.138,379.389C872.972,379.389 874.481,380.898 874.481,382.732C874.481,384.566 872.972,386.075 871.138,386.075C871.136,386.075 871.134,386.075 871.132,386.075Z" style="fill:rgb(204,204,204);fill-rule:nonzero;"/>
    </g>
    <g transform="matrix(1,0,0,1,-299.2,-135)">
        <path d="M871.132,403.625L776.696,403.625C776.695,403.625 776.693,403.625 776.691,403.625C774.857,403.625 773.348,402.116 773.348,400.282C773.348,398.448 774.857,396.939 776.691,396.939C776.693,396.939 776.695,396.939 776.696,396.939L871.132,396.939C871.134,396.939 871.136,396.939 871.138,396.939C872.972,396.939 874.481,398.448 874.481,400.282C874.481,402.116 872.972,403.625 871.138,403.625C871.136,403.625 871.134,403.625 871.132,403.625Z" style="fill:rgb(204,204,204);fill-rule:nonzero;"/>
    </g>
    <g transform="matrix(1,0,0,1,-299.2,-135)">
        <path d="M871.132,421.175L776.696,421.175C776.695,421.175 776.693,421.175 776.691,421.175C774.857,421.175 773.348,419.666 773.348,417.832C773.348,415.998 774.857,414.489 776.691,414.489C776.693,414.489 776.695,414.489 776.696,414.489L871.132,414.489C871.134,414.489 871.136,414.489 871.138,414.489C872.972,414.489 874.481,415.998 874.481,417.832C874.481,419.666 872.972,421.175 871.138,421.175C871.136,421.175 871.134,421.175 871.132,421.175Z" style="fill:rgb(204,204,204);fill-rule:nonzero;"/>
    </g>
    <g transform="matrix(1,0,0,1,-299.2,-135)">
        <path d="M871.132,438.725L776.696,438.725C776.695,438.725 776.693,438.725 776.691,438.725C774.857,438.725 773.348,437.216 773.348,435.382C773.348,433.548 774.857,432.039 776.691,432.039C776.693,432.039 776.695,432.039 776.696,432.039L871.132,432.039C871.134,432.039 871.136,432.039 871.138,432.039C872.972,432.039 874.481,433.548 874.481,435.382C874.481,437.216 872.972,438.725 871.138,438.725C871.136,438.725 871.134,438.725 871.132,438.725Z" style="fill:rgb(204,204,204);fill-rule:nonzero;"/>
    </g>
    <g transform="matrix(1,0,0,1,-299.2,-135)">
        <path d="M871.132,456.275L776.696,456.275C776.695,456.275 776.693,456.275 776.691,456.275C774.857,456.275 773.348,454.766 773.348,452.932C773.348,451.098 774.857,449.589 776.691,449.589C776.693,449.589 776.695,449.589 776.696,449.589L871.132,449.589C871.134,449.589 871.136,449.589 871.138,449.589C872.972,449.589 874.481,451.098 874.481,452.932C874.481,454.766 872.972,456.275 871.138,456.275C871.136,456.275 871.134,456.275 871.132,456.275Z" style="fill:rgb(204,204,204);fill-rule:nonzero;"/>
    </g>
    <g transform="matrix(1,0,0,1,-299.2,-135)">
        <path d="M871.132,473.825L776.696,473.825C776.695,473.825 776.693,473.825 776.691,473.825C774.857,473.825 773.348,472.316 773.348,470.482C773.348,468.648 774.857,467.139 776.691,467.139C776.693,467.139 776.695,467.139 776.696,467.139L871.132,467.139C871.134,467.139 871.136,467.139 871.138,467.139C872.972,467.139 874.481,468.648 874.481,470.482C874.481,472.316 872.972,473.825 871.138,473.825C871.136,473.825 871.134,473.825 871.132,473.825Z" style="fill:rgb(204,204,204);fill-rule:nonzero;"/>
    </g>
    <g transform="matrix(1,0,0,1,-299.2,-135)">
        <path d="M445.45,506L306.721,506C302.597,505.995 299.205,502.603 299.2,498.479L299.2,322.979C299.205,318.854 302.597,315.462 306.721,315.457L445.45,315.457C449.574,315.462 452.967,318.854 452.971,322.979L452.971,498.479C452.967,502.603 449.574,505.995 445.45,506ZM306.721,317.129C303.514,317.132 300.875,319.771 300.871,322.979L300.871,498.479C300.875,501.686 303.514,504.325 306.721,504.329L445.45,504.329C448.658,504.325 451.296,501.686 451.3,498.479L451.3,322.979C451.296,319.771 448.658,317.132 445.45,317.129L306.721,317.129Z" style="fill:rgb(63,61,86);fill-rule:nonzero;"/>
    </g>
    <g transform="matrix(1,0,0,1,-299.2,-135)">
        <path d="M423.448,356.893L381.663,356.893C379.829,356.893 378.32,355.384 378.32,353.55C378.32,351.716 379.829,350.207 381.663,350.207L423.448,350.207C425.282,350.207 426.791,351.716 426.791,353.55C426.791,355.384 425.282,356.893 423.448,356.893Z" style="fill:rgb(63,61,86);fill-rule:nonzero;"/>
    </g>
    <g transform="matrix(1,0,0,1,-299.2,-135)">
        <path d="M423.448,374.443L381.663,374.443C379.829,374.443 378.32,372.934 378.32,371.1C378.32,369.266 379.829,367.757 381.663,367.757L423.448,367.757C425.282,367.757 426.791,369.266 426.791,371.1C426.791,372.934 425.282,374.443 423.448,374.443Z" style="fill:rgb(63,61,86);fill-rule:nonzero;"/>
    </g>
    <g transform="matrix(1,0,0,1,-299.2,-135)">
        <path d="M360.222,384.436L329.685,384.436C327.623,384.433 325.927,382.737 325.925,380.675L325.925,344.639C325.927,342.577 327.623,340.881 329.685,340.879L360.222,340.879C362.284,340.881 363.981,342.577 363.983,344.639L363.983,380.675C363.981,382.737 362.284,384.433 360.222,384.436Z" style="fill:rgb(9,163,199);fill-rule:nonzero;"/>
    </g>
    <g transform="matrix(1,0,0,1,-299.2,-135)">
        <path d="M423.159,410.378L328.723,410.378C328.721,410.378 328.719,410.378 328.717,410.378C326.883,410.378 325.374,408.869 325.374,407.036C325.374,405.202 326.883,403.693 328.717,403.693C328.719,403.693 328.721,403.693 328.723,403.693L423.159,403.693C423.161,403.693 423.163,403.693 423.165,403.693C424.998,403.693 426.507,405.202 426.507,407.036C426.507,408.869 424.998,410.378 423.165,410.378C423.163,410.378 423.161,410.378 423.159,410.378Z" style="fill:rgb(204,204,204);fill-rule:nonzero;"/>
    </g>
    <g transform="matrix(1,0,0,1,-299.2,-135)">
        <path d="M423.159,427.928L328.723,427.928C328.721,427.928 328.719,427.928 328.717,427.928C326.883,427.928 325.374,426.419 325.374,424.586C325.374,422.752 326.883,421.243 328.717,421.243C328.719,421.243 328.721,421.243 328.723,421.243L423.159,421.243C423.161,421.243 423.163,421.243 423.165,421.243C424.998,421.243 426.507,422.752 426.507,424.586C426.507,426.419 424.998,427.928 423.165,427.928C423.163,427.928 423.161,427.928 423.159,427.928Z" style="fill:rgb(204,204,204);fill-rule:nonzero;"/>
    </g>
    <g transform="matrix(1,0,0,1,-299.2,-135)">
        <path d="M423.159,445.478L328.723,445.478C328.721,445.478 328.719,445.478 328.717,445.478C326.883,445.478 325.374,443.969 325.374,442.136C325.374,440.302 326.883,438.793 328.717,438.793C328.719,438.793 328.721,438.793 328.723,438.793L423.159,438.793C423.161,438.793 423.163,438.793 423.165,438.793C424.998,438.793 426.507,440.302 426.507,442.136C426.507,443.969 424.998,445.478 423.165,445.478C423.163,445.478 423.161,445.478 423.159,445.478Z" style="fill:rgb(204,204,204);fill-rule:nonzero;"/>
    </g>
    <g transform="matrix(1,0,0,1,-299.2,-135)">
        <path d="M423.159,463.028L328.723,463.028C328.721,463.028 328.719,463.028 328.717,463.028C326.883,463.028 325.374,461.519 325.374,459.686C325.374,457.852 326.883,456.343 328.717,456.343C328.719,456.343 328.721,456.343 328.723,456.343L423.159,456.343C423.161,456.343 423.163,456.343 423.165,456.343C424.998,456.343 426.507,457.852 426.507,459.686C426.507,461.519 424.998,463.028 423.165,463.028C423.163,463.028 423.161,463.028 423.159,463.028Z" style="fill:rgb(204,204,204);fill-rule:nonzero;"/>
    </g>
    <g transform="matrix(1,0,0,1,-299.2,-135)">
        <path d="M423.159,480.578L328.723,480.578C328.721,480.578 328.719,480.578 328.717,480.578C326.883,480.578 325.374,479.069 325.374,477.236C325.374,475.402 326.883,473.893 328.717,473.893C328.719,473.893 328.721,473.893 328.723,473.893L423.159,473.893C423.161,473.893 423.163,473.893 423.165,473.893C424.998,473.893 426.507,475.402 426.507,477.236C426.507,479.069 424.998,480.578 423.165,480.578C423.163,480.578 423.161,480.578 423.159,480.578Z" style="fill:rgb(204,204,204);fill-rule:nonzero;"/>
    </g>
    <g transform="matrix(1,0,0,1,-299.2,-135)">
        <path d="M497.895,607.719L497.895,571.683C497.897,569.621 499.594,567.925 501.656,567.922L532.193,567.922C534.255,567.925 535.951,569.621 535.954,571.683L535.954,607.719C535.951,609.781 534.255,611.477 532.193,611.479L501.656,611.479C499.594,611.477 497.897,609.781 497.895,607.719Z" style="fill:rgb(230,230,230);fill-rule:nonzero;"/>
    </g>
    <g transform="matrix(1,0,0,1,-299.2,-135)">
        <path d="M508.895,595.719L508.895,559.683C508.897,557.621 510.594,555.925 512.656,555.922L543.193,555.922C545.255,555.925 546.951,557.621 546.954,559.683L546.954,595.719C546.951,597.781 545.255,599.477 543.193,599.479L512.656,599.479C510.594,599.477 508.897,597.781 508.895,595.719Z" style="fill:rgb(9,163,199);fill-rule:nonzero;"/>
    </g>
    <g transform="matrix(1,0,0,1,-299.2,-135)">
        <path d="M645.784,584.188C642.981,582.568 641.248,579.567 641.248,576.329C641.248,574.187 642.006,572.114 643.386,570.477L633.92,501.289L653.638,502.257L656.734,569.742C658.519,571.462 659.529,573.837 659.529,576.316C659.529,581.323 655.409,585.443 650.402,585.443C648.779,585.443 647.184,585.01 645.784,584.188L645.784,584.188Z" style="fill:rgb(239,190,151);fill-rule:nonzero;"/>
    </g>
    <g transform="matrix(1,0,0,1,-299.2,-135)">
        <path d="M656.344,503.179C655.94,503.655 655.422,504.021 654.839,504.243L637.119,511.006C635.282,511.707 633.19,510.838 632.39,509.041L616.694,473.766C615.187,470.495 614.931,466.782 615.973,463.335C617.541,458.328 621.737,454.566 626.885,453.553C628.831,453.152 630.841,453.181 632.775,453.636C637.478,454.684 641.345,458.045 643.038,462.557L656.994,499.447C657.471,500.715 657.222,502.147 656.344,503.179Z" style="fill:rgb(204,204,204);fill-rule:nonzero;"/>
    </g>
    <path d="M264.807,618.06L252.547,618.06L248.102,570.549L264.809,570.773L264.807,618.06Z" style="fill:rgb(239,190,151);fill-rule:nonzero;"/>
    <path d="M243.79,614.557L267.434,614.557L267.434,629.444L228.903,629.444C228.903,629.444 228.903,629.444 228.903,629.444C228.903,621.277 235.624,614.557 243.79,614.557Z" style="fill:rgb(47,46,65);fill-rule:nonzero;"/>
    <path d="M321.807,618.06L309.547,618.06L303.715,570.772L321.809,570.773L321.807,618.06Z" style="fill:rgb(239,190,151);fill-rule:nonzero;"/>
    <path d="M300.79,614.557L324.434,614.557L324.434,629.444L285.903,629.444C285.903,629.444 285.903,629.444 285.903,629.444C285.903,621.277 292.624,614.557 300.79,614.557Z" style="fill:rgb(47,46,65);fill-rule:nonzero;"/>
    <g transform="matrix(1,0,0,1,-299.2,-135)">
        <path d="M622.549,736.236L603.294,734.81C601.039,734.64 599.243,732.798 599.131,730.539L594.838,641.809C594.748,639.955 593.198,638.478 591.342,638.478C589.686,638.478 588.246,639.653 587.913,641.276L570.002,728.683C569.545,730.897 567.489,732.443 565.235,732.265L547.829,730.872C545.503,730.686 543.688,728.72 543.688,726.387C543.688,726.238 543.695,726.088 543.71,725.94L559.858,564.463C560.087,562.174 562.035,560.411 564.335,560.411C564.657,560.411 564.977,560.445 565.292,560.514L626.698,573.862C628.787,574.321 630.276,576.205 630.241,578.344L627.381,731.832C627.334,734.264 625.324,736.242 622.892,736.248C622.778,736.248 622.664,736.243 622.549,736.236Z" style="fill:rgb(47,46,65);fill-rule:nonzero;"/>
    </g>
    <circle cx="306.503" cy="269.888" r="24.561" style="fill:rgb(239,190,151);"/>
    <g transform="matrix(1,0,0,1,-299.2,-135)">
        <path d="M567.596,576.915C562.819,572.632 560.151,566.463 560.302,560.049C560.302,524.748 590.857,445.881 591.815,443.42C591.909,442.827 592.715,442.571 596.945,439.714C601.177,436.855 607.28,436.415 615.084,438.408C616.699,438.822 617.954,440.104 618.334,441.727L619.786,443.824C620.042,444.902 620.796,445.796 621.815,446.231C628.108,448.882 648.113,461.109 641.296,507.122C634.964,549.865 632.395,575.003 631.584,583.827C631.388,585.979 629.665,587.7 627.512,587.893C624.427,588.169 619.13,588.536 612.823,588.536C598.202,588.536 578.147,586.564 567.596,576.915Z" style="fill:rgb(204,204,204);fill-rule:nonzero;"/>
    </g>
    <g transform="matrix(1,0,0,1,-299.2,-135)">
        <path d="M538.247,563.837C537.638,562.594 537.321,561.227 537.321,559.842C537.321,555.804 540.015,552.228 543.896,551.115L574.589,488.39L590.423,500.181L555.389,557.943C555.526,558.577 555.595,559.224 555.595,559.873C555.595,564.88 551.475,569 546.468,569C542.97,569 539.767,566.989 538.247,563.837L538.247,563.837Z" style="fill:rgb(239,190,151);fill-rule:nonzero;"/>
    </g>
    <g transform="matrix(1,0,0,1,-299.2,-135)">
        <path d="M592.156,502.454C591.556,502.624 590.922,502.64 590.313,502.499L571.831,498.241C569.915,497.8 568.662,495.912 568.999,493.975L575.622,455.937C576.193,452.381 578.049,449.155 580.835,446.873C584.927,443.59 590.508,442.804 595.347,444.831C597.186,445.583 598.839,446.726 600.191,448.182C603.513,451.673 604.851,456.619 603.742,461.309L594.775,499.717C594.465,501.036 593.46,502.086 592.156,502.454Z" style="fill:rgb(204,204,204);fill-rule:nonzero;"/>
    </g>
    <g transform="matrix(1,0,0,1,-299.2,-135)">
        <path d="M599.953,427.079C597.529,424.606 596.467,421.094 597.114,417.692C597.97,413.213 598.473,410.282 598.568,409.216C598.895,405.568 595.207,402.615 591.558,402.145C591.417,402.127 591.299,402.114 591.2,402.107C591.293,402.198 591.393,402.291 591.48,402.374C592.173,403.024 593.036,403.835 592.831,404.671C592.707,405.174 592.247,405.532 591.424,405.762C585.718,407.359 581.323,405.893 577.594,401.146C576.545,399.797 575.824,398.223 575.488,396.548C574.152,389.993 577.712,384.405 580.934,380.872C583.591,377.959 587.898,374.423 593.328,374.12C597.552,373.884 607.95,377.162 610.439,377.108C613.322,377.046 616.16,377.835 618.597,379.377C630.506,386.199 635.624,402.45 629.774,414.865C626.093,422.674 618.119,428.488 608.964,430.037C608.391,430.134 607.81,430.183 607.229,430.184C604.484,430.179 601.855,429.058 599.953,427.079Z" style="fill:rgb(31,23,0);fill-rule:nonzero;"/>
    </g>
    <g transform="matrix(1,0,0,1,-299.2,-135)">
        <path d="M484.779,765L679.779,765C680.327,765 680.779,764.549 680.779,764C680.779,763.451 680.327,763 679.779,763L484.779,763C484.23,763 483.779,763.451 483.779,764C483.779,764.549 484.23,765 484.779,765Z" style="fill:rgb(63,61,86);fill-rule:nonzero;"/>
    </g>
</svg>
