<svg xmlns="http://www.w3.org/2000/svg" fill-rule="evenodd" stroke-linejoin="round" stroke-miterlimit="2" clip-rule="evenodd" viewBox="0 0 888 631"><path fill="#e6e6e6" fill-rule="nonzero" d="M115.09 582.43l-2.27-8.95c-4.03-1.71-8.14-3.19-12.34-4.43l-.28 4.16-1.17-4.58c-5.2-1.49-8.73-2.14-8.73-2.14s4.78 18.16 14.8 32.05l11.67 2.05-9.07 1.31a46.96 46.96 0 004.06 4.3c14.57 13.53 30.8 19.73 36.26 13.86 5.45-5.87-1.95-21.6-16.53-35.13a61.91 61.91 0 00-15.87-10.2l-.53 7.7z"/><path fill="#e6e6e6" fill-rule="nonzero" d="M136.68 572.7l2.68-8.83a116.12 116.12 0 00-8.27-10.17l-2.4 3.42 1.38-4.53a104.61 104.61 0 00-6.37-6.34s-5.3 18.02-3.9 35.08l8.93 7.8-8.44-3.58c.3 1.96.71 3.88 1.25 5.78 5.48 19.12 16.17 32.82 23.87 30.61 7.7-2.2 9.5-19.5 4.02-38.6a61.96 61.96 0 00-8.31-16.95l-4.44 6.32zM298.97 580.25l-2.13-8.41c-3.78-1.6-7.65-3-11.6-4.16l-.26 3.91-1.1-4.3c-4.88-1.4-8.2-2.02-8.2-2.02s4.49 17.08 13.9 30.13l10.97 1.93-8.52 1.22a44.1 44.1 0 003.81 4.05c13.7 12.71 28.96 18.54 34.08 13.03 5.13-5.52-1.83-20.3-15.53-33.02a58.2 58.2 0 00-14.92-9.6l-.5 7.25z"/><path fill="#e6e6e6" fill-rule="nonzero" d="M319.27 571.12l2.52-8.31c-2.41-3.33-5-6.52-7.78-9.55l-2.25 3.2 1.3-4.25c-3.47-3.72-6-5.96-6-5.96s-4.98 16.93-3.66 32.97l8.4 7.33-7.94-3.36c.28 1.83.67 3.65 1.18 5.43 5.15 17.97 15.2 30.85 22.44 28.77 7.23-2.07 8.92-18.32 3.77-36.29a58.19 58.19 0 00-7.81-15.92l-4.17 5.94zM657.35 584.79l-1.08-4.24a54.9 54.9 0 00-5.84-2.1l-.13 1.97-.55-2.17c-2.47-.7-4.14-1.01-4.14-1.01a52.77 52.77 0 007 15.18l5.54.97-4.3.62c.6.72 1.24 1.4 1.92 2.04 6.9 6.4 14.6 9.34 17.17 6.56 2.59-2.78-.92-10.23-7.82-16.64a29.32 29.32 0 00-7.52-4.83l-.25 3.65z"/><path fill="#e6e6e6" fill-rule="nonzero" d="M667.58 580.18l1.27-4.18a54.95 54.95 0 00-3.92-4.82l-1.14 1.62.66-2.14c-1.75-1.88-3.02-3-3.02-3a52.78 52.78 0 00-1.85 16.6l4.23 3.7-4-1.7c.14.93.34 1.85.6 2.74 2.6 9.06 7.66 15.55 11.3 14.5 3.65-1.04 4.5-9.23 1.9-18.28a29.34 29.34 0 00-3.93-8.03l-2.1 3zM750 577.46l-1.4-5.58a72.48 72.48 0 00-7.7-2.75l-.17 2.59-.73-2.86c-3.23-.92-5.44-1.33-5.44-1.33s2.98 11.32 9.22 19.97l7.27 1.28-5.65.81c.79.95 1.63 1.84 2.53 2.68 9.08 8.43 19.2 12.3 22.59 8.64 3.4-3.66-1.21-13.46-10.3-21.89a38.6 38.6 0 00-9.88-6.36l-.33 4.8z"/><path fill="#e6e6e6" fill-rule="nonzero" d="M763.45 571.4l1.68-5.5a72.23 72.23 0 00-5.16-6.33l-1.49 2.12.86-2.82a65.12 65.12 0 00-3.97-3.95s-3.3 11.23-2.43 21.86l5.56 4.85-5.26-2.22c.19 1.21.45 2.42.78 3.6 3.42 11.9 10.08 20.44 14.88 19.07 4.8-1.38 5.91-12.15 2.5-24.06a38.6 38.6 0 00-5.18-10.55l-2.77 3.93zM574.21 555.24l6.43-7.45c-.97-4.56-2.2-9.05-3.68-13.47l-3.8 2.3 3.29-3.82c-1.88-5.44-3.47-8.93-3.47-8.93s-12.93 15.26-18.93 32.49l5.34 11.43-6.68-7.1a50.16 50.16 0 00-1.27 6.16c-2.9 20.97 1.6 38.93 10.05 40.1 8.45 1.16 17.65-14.9 20.55-35.87.77-6.7.5-13.47-.78-20.09l-7.05 4.25z"/><path fill="#e6e6e6" fill-rule="nonzero" d="M595.88 568.13l9.35-3.05c1.52-4.4 2.8-8.88 3.81-13.43h-4.44l4.79-1.57c1.2-5.63 1.64-9.43 1.64-9.43s-18.95 6.38-32.99 18.02l-1.34 12.55-2.04-9.54c-1.52 1.45-2.95 3-4.28 4.62-13.32 16.46-18.75 34.15-12.12 39.52 6.63 5.37 22.8-3.62 36.14-20.08a65.97 65.97 0 009.7-17.6h-8.22zM682.52 584.83l2.86-3.31a54.9 54.9 0 00-1.63-5.99l-1.7 1.02 1.47-1.7c-.84-2.42-1.55-3.97-1.55-3.97a52.8 52.8 0 00-8.41 14.45l2.37 5.09-2.97-3.17c-.24.9-.43 1.82-.56 2.75-1.3 9.33.7 17.31 4.46 17.83 3.76.52 7.86-6.62 9.15-15.95.34-2.98.22-6-.35-8.93l-3.14 1.88z"/><path fill="#e6e6e6" fill-rule="nonzero" d="M692.16 590.57l4.16-1.36a54.77 54.77 0 001.7-5.97h-1.98l2.13-.7c.53-2.5.73-4.2.73-4.2a52.76 52.76 0 00-14.67 8.02l-.6 5.58-.9-4.24a22.4 22.4 0 00-1.9 2.05c-5.94 7.32-8.35 15.2-5.4 17.58 2.95 2.39 10.14-1.6 16.07-8.93a29.31 29.31 0 004.32-7.83h-3.66z"/><path fill="#e6e6e6" fill-rule="nonzero" d="M.53 630.6s698.5-72 886.5 0H.54z"/><path fill="#e6e6e6" fill-rule="nonzero" d="M887.04 191.3C885.67 85.27 831.58 0 765.05 0c-39.98 0-75.47 30.8-97.72 78.38l26.16 65.66-36.16-40.47c-9.12 27.38-14.3 58.64-14.3 91.84a299.44 299.44 0 009.23 74.63l70.12-11.3-62.76 35.09c20.45 56.05 57.82 94.33 100.89 96.85l-8.3 225.82 25.68.92-5.49-226.96c61.34-5.84 110.47-84.23 114.4-182.33l-42.38-23.7 42.62 6.87z"/><path fill="#2f2e41" fill-rule="nonzero" d="M442.83 184.86l33.75 5.94 11.26-56.4-27.2-11.87-17.81 62.33zM483.42 193.88l33.75 5.94 11.25-56.4-27.19-11.87-17.81 62.33z"/><path fill="#cc9c80" fill-rule="nonzero" d="M523.63 556.82v23.44h17.14l-1.8-22.54-15.34-.9zM434.34 556.82v23.44H417.2l1.8-22.54 15.34-.9z"/><path fill="#2f2e41" fill-rule="nonzero" d="M440.65 339.45l-13.7 83.51a498.74 498.74 0 00-6.3 64.28l-2.55 76.8 18.04-1.81 13.53-87.5s35.18-129.87 47.8-103.72c12.63 26.16 18.94 109.14 18.94 109.14l5.42 81.18h19.84l1.8-106.44s10.83-148.82-16.23-161.44l-86.59 46zM542.57 576.66s-19.84-13.53-21.65-2.7l-7.21 26.15s-10.82 20.74 12.63 20.74c23.45 0 16.23-15.33 16.23-15.33v-28.86zM415.4 576.66s19.84-13.53 21.64-2.7l7.22 26.15s10.82 20.74-12.63 20.74c-23.45 0-16.23-15.33-16.23-15.33v-28.86z"/><circle cx="490.71" cy="146.88" r="26.156" fill="#cc9c80"/><path fill="#cc9c80" fill-rule="nonzero" d="M474.02 158.15s2.7 25.26-10.82 30.67l22.55 27.06 29.76-20.75s-21.64-4.5-18.04-17.13c3.61-12.63 3.61-14.43 3.61-14.43l-27.06-5.42z"/><path fill="#b1a296" fill-rule="nonzero" d="M468.16 185.66s18.94 14.44 22.55 13.53c3.6-.9 10.82-10.82 10.82-10.82s26.61.45 37.43 7.67c10.83 7.21-10.37 51.86-10.37 51.86s5.86 20.3-1.35 25.7c-7.22 5.41 1.8 18.94 1.8 18.94s-18.04 33.38-65.84 46c0 0-29.76 11.73-28.86 5.42.9-6.32 9.92-78.47 9.92-78.47v-74.87l23.9-4.96z"/><path fill="#2f2e41" fill-rule="nonzero" d="M468.15 115.79s-13.66 4.55-14.36 22.53a31.9 31.9 0 00.95 8.54c.77 3.26 1.26 10.27-4.7 19.44a192.5 192.5 0 00-10.92 18.79l-.04.08 15 1.88 3.2-24.87a123.84 123.84 0 019.82-34.9l.1-.24s6.57 12.19 19.7 12.19l-4.69-4.69s20.63 8.44 28.13 8.44c0 0 5.62 3.75 0 9.38-5.63 5.62-16.88 18.75-10.31 29.06 6.56 10.32.93 13.13.93 13.13l10.32-5.63 4.68-2.81v3.75l24.38-2.81s6.56-.94-7.5-16.88c0 0-3.71-6.19-2.09-11.53a26.93 26.93 0 001.03-12.6c-3.16-17.57-15.52-52.52-63.63-30.25z"/><path fill="#09a3c7" fill-rule="nonzero" d="M365.56 341.7h245.47v136.06h-31.18v37.42l-33.59-37.42h-180.7V341.7z"/><path fill="#fff" d="M570.78 389.04H405.8v-7.37h164.98zM570.78 413.42H405.8v-7.37h164.98zM570.78 437.8H405.8v-7.38h164.98z"/><path fill="#cc9c80" fill-rule="nonzero" d="M425.32 262.78l2.7 19.84 19.85 55.02s4.5 42.4 15.33 36.98c10.82-5.41-1.8-43.3-1.8-43.3l-16.24-51.4.9-18.04-20.74.9z"/><path fill="#b1a296" fill-rule="nonzero" d="M455.08 192.43l-8.13-2.65-3.6 1.75s-12.62.9-14.42 9.92c-1.8 9.02-8.12 64.94-8.12 64.94l33.37 1.8.9-75.76z"/><path fill="#cc9c80" fill-rule="nonzero" d="M545.73 262.78l-2.7 19.84-19.85 55.02s-4.51 42.4-15.33 36.98c-10.83-5.41 1.8-43.3 1.8-43.3l16.24-51.4-.9-18.04 20.74.9z"/><path fill="#b1a296" fill-rule="nonzero" d="M515.96 192.43l4.34-1.42a9.88 9.88 0 017.39.52c2.3 1.12 12.63.9 14.43 9.92 1.8 9.02 8.12 64.94 8.12 64.94l-33.37 1.8-.9-75.76z"/><path fill="#09a3c7" fill-rule="nonzero" d="M332.9 17.33H0v184.52h42.28v50.74l45.56-50.74H332.9V17.33z"/><path fill="#fff" d="M54.59 71.53H278.3v10H54.6zM54.59 104.6H278.3v9.99H54.6zM54.59 137.65H278.3v10H54.6z"/><circle cx="36.035" cy="267.424" r="9" fill="#e6e6e6"/></svg>