<?xml version="1.0" encoding="UTF-8" standalone="yes"?><svg xmlns="http://www.w3.org/2000/svg" xmlns:xlink="http://www.w3.org/1999/xlink" version="1.2" baseProfile="tiny-ps" viewBox="0 0 116 116" xml:space="preserve" fill-rule="evenodd" stroke-linejoin="round" stroke-miterlimit="2"><title>Restore Orthopedics</title><g transform="matrix(0.459652,0,0,0.459652,16.9914,13.9658)"><path fill="rgb(48,191,205)" d="M10.137,47.962C10.182,47.874 10.226,47.786 10.272,47.699C16.847,35.02 28.038,21.556 44.504,12.025C51.326,8.077 60.712,4.066 69.407,2.163C80.366,-0.235 90.043,0.007 90.043,0.007C109.764,0.007 126.814,11.882 135.664,29.088C139.681,36.898 142.167,45.696 142.167,55.173C142.167,57.067 142.24,60.851 142.078,62.382C141.01,72.449 137.345,82.23 130.706,89.41C125.359,96.055 117.171,100.266 108.516,103.07C108.4,103.107 108.284,103.145 108.168,103.183C114.697,95.874 113.286,77.824 109.242,65.268C102.736,45.065 85.117,32.384 66.948,30.038C62.429,29.455 57.881,29.226 53.147,29.438C36.917,30.165 21.8,36.748 10.359,47.747C10.285,47.818 10.211,47.89 10.137,47.962Z"></path></g><g transform="matrix(0.459652,0,0,0.459652,16.9914,13.9658)"><path fill="rgb(9,163,199)" d="M130.55,10.102C130.638,10.146 130.725,10.191 130.813,10.237C143.485,16.824 156.938,28.029 166.452,44.504C170.394,51.331 174.395,60.721 176.289,69.418C178.677,80.379 178.425,90.056 178.425,90.056C178.405,109.776 166.513,126.815 149.298,135.647C141.485,139.656 132.684,142.134 123.207,142.125C121.312,142.123 117.528,142.192 115.998,142.028C105.932,140.95 96.155,137.275 88.981,130.63C82.342,125.276 78.138,117.084 75.344,108.425C75.306,108.309 75.268,108.193 75.23,108.077C82.534,114.613 100.584,113.221 113.145,109.189C133.354,102.703 146.053,85.097 148.417,66.93C149.005,62.413 149.238,57.865 149.031,53.13C148.32,36.9 141.752,21.776 130.765,10.324C130.694,10.25 130.622,10.175 130.55,10.102Z"></path></g><g transform="matrix(0.459652,0,0,0.459652,16.9914,13.9658)"><path fill="rgb(48,191,205)" d="M168.651,130.313C168.607,130.401 168.562,130.488 168.517,130.576C161.986,143.277 150.841,156.779 134.407,166.366C127.598,170.338 118.226,174.381 109.538,176.313C98.587,178.749 88.909,178.54 88.909,178.54C69.189,178.607 52.098,166.79 43.189,149.615C39.146,141.819 36.629,133.029 36.597,123.552C36.59,121.658 36.505,117.874 36.662,116.343C37.695,106.272 41.327,96.479 47.941,89.276C53.265,82.613 61.439,78.373 70.085,75.541C70.201,75.503 70.317,75.464 70.432,75.426C63.928,82.758 65.401,100.802 69.487,113.345C76.063,133.525 93.725,146.146 111.902,148.43C116.422,148.998 120.971,149.211 125.705,148.983C141.931,148.201 157.027,141.566 168.43,130.529C168.504,130.457 168.578,130.385 168.651,130.313Z"></path></g><g transform="matrix(0.459652,0,0,0.459652,16.9914,13.9658)"><path fill="rgb(9,163,199)" d="M47.697,168.472C47.61,168.428 47.522,168.382 47.435,168.337C34.779,161.72 21.352,150.484 11.876,133.986C7.95,127.151 3.971,117.751 2.097,109.05C-0.264,98.083 0.01,88.407 0.01,88.407C0.076,68.686 12.008,51.676 29.243,42.884C37.066,38.893 45.873,36.435 55.35,36.467C57.244,36.473 61.028,36.413 62.558,36.581C72.622,37.682 82.39,41.38 89.548,48.042C96.175,53.411 100.359,61.613 103.134,70.279C103.171,70.395 103.208,70.511 103.246,70.627C95.958,64.074 77.905,65.424 65.335,69.426C45.11,75.865 32.37,93.441 29.964,111.602C29.365,116.119 29.121,120.666 29.318,125.401C29.99,141.633 36.523,156.772 47.483,168.25C47.554,168.324 47.626,168.399 47.697,168.472Z"></path></g></svg>