<?xml version="1.0" encoding="UTF-8"?><svg xmlns="http://www.w3.org/2000/svg" xmlns:xlink="http://www.w3.org/1999/xlink" viewBox="0 0 500 500" version="1.2" baseProfile="tiny-ps" xml:space="preserve" fill-rule="evenodd" stroke-linejoin="round" stroke-miterlimit="2"><title>Restore Orthopedics</title><path d="M56.927,149.14C57.037,148.926 57.144,148.711 57.256,148.498C73.309,117.542 100.632,84.67 140.834,61.4C157.49,51.761 180.406,41.968 201.635,37.322C228.391,31.467 252.018,32.058 252.018,32.058C300.167,32.058 341.795,61.051 363.402,103.059C373.21,122.128 379.279,143.608 379.279,166.746C379.279,171.37 379.458,180.609 379.062,184.347C376.454,208.926 367.506,232.806 351.297,250.336C338.242,266.56 318.251,276.841 297.12,283.687C296.837,283.777 296.554,283.87 296.27,283.963C312.211,266.118 308.766,222.049 298.893,191.393C283.008,142.067 239.991,111.107 195.631,105.379C184.598,103.955 173.494,103.396 161.936,103.914C122.31,105.689 85.402,121.761 57.469,148.615C57.288,148.789 57.107,148.965 56.927,149.14Z" fill="#30bfcd"></path><path d="M350.916,56.705C351.131,56.812 351.344,56.922 351.558,57.034C382.497,73.117 415.343,100.474 438.571,140.698C448.196,157.366 457.964,180.292 462.589,201.525C468.419,228.287 467.804,251.913 467.804,251.913C467.755,300.06 438.72,341.661 396.69,363.224C377.614,373.012 356.126,379.062 332.988,379.04C328.362,379.035 319.123,379.204 315.387,378.804C290.811,376.172 266.941,367.199 249.425,350.975C233.216,337.903 222.952,317.902 216.13,296.761C216.037,296.478 215.945,296.195 215.852,295.912C233.685,311.87 277.754,308.471 308.422,298.627C357.762,282.791 388.767,239.806 394.539,195.451C395.974,184.423 396.543,173.319 396.038,161.758C394.302,122.132 378.266,85.207 351.441,57.247C351.268,57.066 351.092,56.883 350.916,56.705Z" fill="#09a3c7"></path><path d="M443.94,350.201C443.833,350.416 443.723,350.628 443.613,350.843C427.668,381.853 400.457,414.818 360.333,438.225C343.709,447.923 320.827,457.794 299.615,462.511C272.878,468.458 249.249,467.948 249.249,467.948C201.103,468.112 159.375,439.26 137.623,397.327C127.752,378.293 121.607,356.832 121.529,333.694C121.512,329.07 121.304,319.831 121.688,316.093C124.21,291.505 133.077,267.595 149.226,250.009C162.224,233.741 182.181,223.389 203.29,216.475C203.574,216.382 203.857,216.287 204.138,216.194C188.258,234.095 191.854,278.15 201.83,308.774C217.886,358.043 261.008,388.858 305.387,394.434C316.423,395.821 327.529,396.341 339.087,395.784C378.703,393.875 415.56,377.676 443.401,350.729C443.581,350.553 443.762,350.377 443.94,350.201Z" fill="#30bfcd"></path><path d="M148.63,443.367C148.417,443.259 148.203,443.147 147.99,443.037C117.09,426.882 84.308,399.449 61.172,359.169C51.587,342.481 41.872,319.531 37.297,298.287C31.533,271.511 32.201,247.887 32.201,247.887C32.363,199.738 61.495,158.208 103.574,136.742C122.674,126.998 144.176,120.997 167.315,121.075C171.939,121.09 181.178,120.943 184.913,121.354C209.484,124.042 233.333,133.07 250.809,149.336C266.989,162.444 277.205,182.469 283.98,203.628C284.07,203.911 284.16,204.194 284.253,204.477C266.46,188.478 222.383,191.774 191.693,201.545C142.314,217.266 111.209,260.178 105.334,304.518C103.872,315.546 103.276,326.648 103.757,338.209C105.398,377.839 121.348,414.801 148.107,442.825C148.281,443.005 148.456,443.189 148.63,443.367Z" fill="#09a3c7"></path></svg>