<svg xmlns="http://www.w3.org/2000/svg" fill-rule="evenodd" viewBox="0 0 779 179" xmlns:xlink="http://www.w3.org/1999/xlink" clip-rule="evenodd"><path fill="#30bfcd" d="M10.14 47.96c.04-.1.1-.17.13-.26 6.58-12.68 17.77-26.14 34.23-35.68 6.83-3.94 16.2-7.95 24.9-9.86C80.38-.24 90.05 0 90.05 0c19.72 0 36.77 11.88 45.62 29.1 4.02 7.8 6.5 16.6 6.5 26.07 0 1.9.08 5.68-.08 7.2-1.07 10.08-4.74 19.86-11.37 27.04-5.34 6.66-13.53 10.87-22.18 13.67-.12.04-.24.08-.35.1 6.53-7.3 5.12-25.35 1.07-37.9-6.5-20.2-24.12-32.9-42.3-35.23-4.5-.6-9.06-.8-13.8-.6-16.22.72-31.34 7.3-42.78 18.3-.07.08-.15.15-.22.22z"/><path fill="#09a3c7" d="M130.55 10.1c.1.05.17.1.26.14 12.7 6.58 26.14 17.8 35.65 34.26 3.94 6.83 7.95 16.22 9.84 24.92 2.38 10.96 2.13 20.64 2.13 20.64-.03 19.72-11.92 36.75-29.13 45.6-7.8 4-16.62 6.47-26.1 6.47-1.9 0-5.67.06-7.2-.1-10.07-1.08-19.84-4.75-27.02-11.4-6.64-5.35-10.84-13.55-13.64-22.2-.03-.12-.07-.24-.1-.35 7.3 6.53 25.34 5.14 37.9 1.1 20.2-6.48 32.9-24.08 35.28-42.25.6-4.52.82-9.07.6-13.8-.7-16.23-7.27-31.35-18.26-42.8-.07-.08-.14-.15-.2-.23z"/><path fill="#30bfcd" d="M168.65 130.3c-.04.1-.1.2-.13.28-6.53 12.7-17.68 26.2-34.1 35.8-6.82 3.96-16.2 8-24.88 9.93-10.95 2.45-20.63 2.24-20.63 2.24-19.7.07-36.8-11.75-45.7-28.92-4.05-7.8-6.57-16.6-6.6-26.07 0-1.9-.1-5.68.06-7.2 1.04-10.08 4.67-19.87 11.28-27.07 5.33-6.67 13.5-10.9 22.14-13.74.12-.04.24-.08.35-.1-6.5 7.32-5.03 25.36-.94 37.9 6.56 20.2 24.22 32.8 42.4 35.1 4.52.56 9.07.77 13.8.54 16.23-.78 31.33-7.4 42.73-18.45.07-.07.15-.15.22-.22z"/><path fill="#09a3c7" d="M47.7 168.47c-.1-.04-.18-.1-.27-.13C34.8 161.72 21.36 150.48 11.9 134c-3.93-6.85-7.9-16.25-9.78-24.95C-.26 98.08 0 88.4 0 88.4.1 68.7 12 51.7 29.25 42.9c7.83-4 16.63-6.45 26.1-6.4 1.9 0 5.7-.07 7.22.1 10.06 1.1 19.83 4.8 27 11.46 6.6 5.37 10.8 13.57 13.57 22.24.04.1.08.23.12.35-7.3-6.56-25.34-5.2-37.92-1.2-20.22 6.43-32.96 24-35.37 42.17-.6 4.52-.84 9.07-.64 13.8.67 16.23 7.2 31.37 18.16 42.85.07.07.15.15.22.22zM226.68 34.93v33.05h21.1c2.7 0 4.88-.5 6.8-1.4 1.94-.9 3.48-2.2 4.64-3.74 1.16-1.55 2.06-3.35 2.57-5.28.5-1.92.76-3.98.76-6.04s-.26-4.1-.77-6.04c-.52-1.93-1.3-3.73-2.45-5.28-1.16-1.54-2.7-2.83-4.5-3.73-1.8-1.02-4-1.54-6.56-1.54h-21.62zM238 79.17h-11.45v27.78c0 1.67-.5 3.2-1.67 4.37-1.16 1.16-2.7 1.67-4.37 1.67-1.66 0-3.08-.52-4.23-1.68-1.16-1.16-1.68-2.7-1.68-4.37V28.9c0-1.43.5-2.7 1.54-3.6.9-1.04 2.05-1.56 3.47-1.56h29.07c4.63 0 8.62.77 11.96 2.45 3.35 1.53 6.05 3.6 8.23 6.16 2.06 2.7 3.6 5.66 4.63 9 .9 3.34 1.4 6.7 1.4 10.16 0 3.22-.38 6.43-1.28 9.65-.9 3.08-2.18 5.9-4 8.35-1.9 2.45-4.23 4.5-7.2 6.18-2.94 1.8-6.55 2.7-10.66 3.08l17.36 24.7c.9 1.4 1.3 2.95 1.16 4.63-.26 1.55-1.16 2.83-2.57 3.73-1.4 1.03-2.82 1.42-4.37 1.16-1.67-.4-2.95-1.3-3.98-2.7L238 79.16zM313.75 74.4v26.76h37.03c1.55 0 2.83.52 4 1.54 1.15 1.16 1.66 2.45 1.66 4.12 0 1.54-.5 2.83-1.67 3.86-1.16 1.15-2.44 1.67-4 1.67h-42.94c-1.67 0-3.1-.64-4.24-1.8-1.17-1.16-1.8-2.7-1.8-4.37V29.92c0-1.68.63-3.22 1.8-4.38 1.14-1.15 2.56-1.8 4.23-1.8h41.4c1.55 0 2.84.52 4 1.55 1.15 1.14 1.67 2.43 1.67 3.97 0 1.67-.52 2.96-1.67 4-1.16 1.15-2.45 1.66-4 1.66h-35.48v28.3h30.6c1.55 0 2.83.5 4 1.54 1.15 1.15 1.66 2.44 1.66 4.1 0 1.56-.5 2.84-1.66 3.87-1.16 1.16-2.44 1.67-4 1.67h-30.6zM395.02 90.1c.4 1.67 1.16 3.22 2.32 4.76 1.15 1.4 2.44 2.7 3.98 3.86 1.67 1.15 3.48 2.05 5.53 2.7 2.2.64 4.38 1.03 6.82 1.03 2.96 0 5.53-.4 7.7-1.16 2.2-.9 4.13-1.94 5.54-3.23 1.56-1.4 2.72-2.95 3.5-4.63.76-1.67 1.14-3.47 1.14-5.27 0-2.18-.38-3.98-1.28-5.66-.9-1.66-2.06-2.94-3.47-4.1-1.43-1.3-2.97-2.2-4.77-2.96-1.8-.64-3.6-1.3-5.53-1.8l-11.45-2.83c-4.76-1.15-8.5-2.56-11.3-4.5-2.84-1.92-5.03-3.85-6.57-5.9-1.55-2.2-2.58-4.38-3.1-6.56-.38-2.2-.63-4.25-.63-6.18 0-3.73.77-7.07 2.3-10.16 1.68-3.08 3.74-5.66 6.3-7.84 2.7-2.2 5.67-4 9.14-5.15 3.47-1.14 7.2-1.8 10.93-1.8 7.07 0 13.1 1.7 17.87 5.16 4.76 3.34 7.97 7.84 9.65 13.63.25.9.38 1.92.38 2.95 0 1.4-.38 2.7-1.28 3.86-.9 1.03-2.45 1.55-4.63 1.55-1.16 0-2.2-.26-3.35-.9-1.03-.52-1.8-1.54-2.18-3.22-1.17-4.1-3.1-7.07-6.06-8.87-2.96-1.8-6.43-2.7-10.54-2.7-2.2 0-4.25.26-6.3.9-1.93.64-3.73 1.67-5.28 2.7-1.54 1.16-2.83 2.57-3.73 4.24-.9 1.68-1.3 3.48-1.3 5.53 0 .9.14 1.93.4 3.1.25 1.15.76 2.3 1.66 3.46.9 1.15 2.2 2.3 3.86 3.2 1.67 1.04 3.86 1.94 6.7 2.58l11.56 2.83c7.6 1.94 13.5 4.9 17.62 9 4.25 4.13 6.3 9.27 6.3 15.3 0 3.62-.64 6.96-2.05 10.17-1.3 3.22-3.22 6.05-5.8 8.5-2.43 2.44-5.65 4.36-9.38 5.78-3.73 1.4-7.84 2.2-12.6 2.2-7.85 0-14.28-1.94-19.3-5.67-5-3.73-8.48-8.36-10.28-14.02-.27-.9-.4-1.67-.4-2.57 0-1.8.65-3.23 1.8-4.13 1.16-.9 2.58-1.4 4.12-1.4 1.3 0 2.44.37 3.34 1.14.9.9 1.68 1.94 2.06 3.1zM467.3 34.93c-1.55 0-2.83-.5-4-1.67-1.15-1.03-1.66-2.32-1.66-4 0-1.53.5-2.82 1.67-3.85 1.17-1.14 2.45-1.66 4-1.66h56.32c1.55 0 2.83.52 4 1.67 1.15 1.04 1.66 2.33 1.66 3.87 0 1.67-.5 2.96-1.67 4-1.15 1.15-2.43 1.66-3.98 1.66H501.5v72.02c0 1.67-.5 3.08-1.67 4.24-1.16 1.15-2.7 1.8-4.37 1.8s-3.1-.65-4.24-1.8c-1.16-1.17-1.68-2.58-1.68-4.25V34.93H467.3zM534.43 68.24c0-6.3 1.15-12.1 3.47-17.62 2.3-5.53 5.53-10.42 9.5-14.53 4-4.13 8.63-7.34 14.16-9.8 5.4-2.43 11.32-3.6 17.62-3.6 6.3 0 12.22 1.17 17.75 3.6 5.53 2.46 10.28 5.67 14.27 9.8 4 4.1 7.2 9 9.52 14.52 2.3 5.53 3.47 11.32 3.47 17.62 0 6.3-1.17 12.22-3.48 17.75-2.32 5.52-5.53 10.27-9.52 14.4-4 4.1-8.74 7.32-14.27 9.76-5.53 2.32-11.45 3.48-17.75 3.48-6.3 0-12.22-1.16-17.75-3.48-5.4-2.44-10.16-5.66-14.14-9.77-4-4.13-7.1-8.88-9.4-14.4-2.32-5.54-3.47-11.46-3.47-17.76zm11.96 0c0 4.76.76 9.13 2.43 13.24 1.67 4.12 4.1 7.72 6.94 10.8 3.1 2.97 6.56 5.4 10.42 7.2 4.1 1.68 8.35 2.58 12.98 2.58 4.63 0 9-.9 13-2.57 3.97-1.8 7.57-4.25 10.53-7.2 2.97-3.1 5.16-6.7 6.96-10.82 1.67-4.1 2.44-8.48 2.44-13.24s-.77-9.13-2.44-13.25c-1.8-4.12-4-7.72-6.95-10.8-2.95-3.1-6.55-5.54-10.53-7.2-4-1.8-8.36-2.7-13-2.7-4.62 0-8.86.9-12.85 2.7-4 1.66-7.46 4.1-10.42 7.2-2.96 3.08-5.27 6.68-6.94 10.8-1.67 4.1-2.57 8.48-2.57 13.24zM654.3 34.93v33.05h21.08c2.7 0 4.88-.5 6.8-1.4 1.94-.9 3.48-2.2 4.64-3.74 1.16-1.55 2.06-3.35 2.57-5.28.5-1.92.76-3.98.76-6.04s-.25-4.1-.77-6.04c-.52-1.93-1.3-3.73-2.45-5.28-1.16-1.54-2.7-2.83-4.5-3.73-1.8-1.02-4-1.54-6.56-1.54h-21.6zm11.3 44.24h-11.44v27.78c0 1.67-.52 3.2-1.68 4.37-1.15 1.16-2.7 1.67-4.37 1.67-1.66 0-3.07-.52-4.23-1.68-1.16-1.16-1.67-2.7-1.67-4.37V28.9c0-1.43.5-2.7 1.54-3.6.9-1.04 2.06-1.56 3.47-1.56h29.08c4.63 0 8.6.77 11.96 2.45 3.34 1.53 6.04 3.6 8.23 6.16 2.05 2.7 3.6 5.66 4.63 9 .9 3.34 1.4 6.7 1.4 10.16 0 3.22-.38 6.43-1.28 9.65-.9 3.08-2.18 5.9-3.98 8.35-1.93 2.45-4.25 4.5-7.2 6.18-2.96 1.8-6.56 2.7-10.68 3.08l17.36 24.7c.9 1.4 1.3 2.95 1.16 4.63-.26 1.55-1.16 2.83-2.57 3.73-1.4 1.03-2.82 1.42-4.36 1.16-1.68-.4-2.96-1.3-4-2.7L665.6 79.16zM736.2 74.4v26.76h37.04c1.54 0 2.83.52 4 1.54 1.14 1.16 1.66 2.45 1.66 4.12 0 1.54-.52 2.83-1.67 3.86-1.16 1.15-2.45 1.67-4 1.67H730.3c-1.7 0-3.1-.64-4.26-1.8-1.15-1.16-1.8-2.7-1.8-4.37V29.92c0-1.68.65-3.22 1.8-4.38 1.16-1.15 2.57-1.8 4.25-1.8h41.4c1.54 0 2.83.52 3.98 1.55 1.16 1.14 1.67 2.43 1.67 3.97 0 1.67-.5 2.96-1.67 4-1.15 1.15-2.44 1.66-3.98 1.66h-35.5v28.3h30.6c1.55 0 2.84.5 4 1.54 1.15 1.15 1.67 2.44 1.67 4.1 0 1.56-.52 2.84-1.67 3.87-1.16 1.16-2.45 1.67-4 1.67h-30.6z"/><use width="564.513" height="25.063" x="213.073" y="137.435" xlink:href="#_Image1" transform="scale(.999 .964)"/></svg>