<svg xmlns="http://www.w3.org/2000/svg" fill-rule="evenodd" stroke-linejoin="round" stroke-miterlimit="2" clip-rule="evenodd" viewBox="0 0 779 179"><path fill="#30bfcd" d="M10.14 47.96c.04-.09.09-.17.13-.26A88.8 88.8 0 0144.5 12.02c6.83-3.94 16.21-7.95 24.9-9.86C80.38-.24 90.05.01 90.05.01c19.72 0 36.77 11.87 45.62 29.08a56.8 56.8 0 016.5 26.08c0 1.9.08 5.68-.08 7.21-1.07 10.07-4.74 19.85-11.37 27.03-5.35 6.64-13.54 10.86-22.2 13.66-.11.04-.23.07-.34.11 6.53-7.3 5.12-25.36 1.07-37.91-6.5-20.2-24.12-32.89-42.3-35.23a79.3 79.3 0 00-13.8-.6 65.86 65.86 0 00-42.78 18.3c-.08.08-.15.15-.22.22z"/><path fill="#09a3c7" d="M130.55 10.1c.09.05.17.1.26.14a88.8 88.8 0 0135.64 34.26c3.94 6.83 7.94 16.22 9.84 24.92 2.39 10.96 2.13 20.64 2.13 20.64-.02 19.72-11.9 36.75-29.12 45.59a56.8 56.8 0 01-26.1 6.47c-1.89 0-5.67.07-7.2-.1-10.07-1.07-19.85-4.75-27.02-11.39-6.64-5.35-10.84-13.55-13.64-22.2-.03-.12-.07-.24-.11-.35 7.3 6.53 25.35 5.14 37.91 1.1 20.21-6.48 32.91-24.08 35.28-42.25.58-4.52.82-9.07.61-13.8a65.86 65.86 0 00-18.48-43.03z"/><path fill="#30bfcd" d="M168.65 130.31c-.04.1-.09.18-.13.27a88.8 88.8 0 01-34.11 35.79c-6.81 3.97-16.18 8.01-24.87 9.94-10.95 2.44-20.63 2.23-20.63 2.23-19.72.07-36.81-11.75-45.72-28.93a56.8 56.8 0 01-6.6-26.06c0-1.9-.09-5.68.07-7.2 1.03-10.08 4.67-19.87 11.28-27.07 5.32-6.67 13.5-10.9 22.14-13.74.12-.04.24-.08.35-.11-6.5 7.33-5.03 25.37-.94 37.91 6.57 20.18 24.23 32.8 42.41 35.09 4.52.57 9.07.78 13.8.55a65.86 65.86 0 0042.73-18.45c.07-.07.15-.15.22-.22z"/><path fill="#09a3c7" d="M47.7 168.47c-.09-.04-.18-.09-.27-.13a88.8 88.8 0 01-35.55-34.35c-3.93-6.84-7.9-16.24-9.78-24.94C-.26 98.08 0 88.41 0 88.41c.07-19.72 12-36.73 29.23-45.53a56.8 56.8 0 0126.11-6.41c1.9 0 5.68-.06 7.2.11 10.07 1.1 19.84 4.8 27 11.46 6.62 5.37 10.8 13.57 13.58 22.24.04.11.08.23.12.35-7.3-6.56-25.35-5.2-37.92-1.2-20.22 6.43-32.96 24.01-35.37 42.17-.6 4.52-.84 9.07-.64 13.8a65.86 65.86 0 0018.38 43.07z"/><path fill="#09a3c7" fill-rule="nonzero" d="M226.68 34.93v33.05h21.1c2.7 0 4.88-.51 6.8-1.41 1.94-.9 3.48-2.19 4.64-3.73a15.5 15.5 0 002.57-5.28c.51-1.92.77-3.98.77-6.04s-.26-4.11-.77-6.04a15.24 15.24 0 00-2.44-5.28 12.75 12.75 0 00-4.5-3.73 13.02 13.02 0 00-6.56-1.54h-21.6zM238 79.17h-11.45v27.78c0 1.67-.51 3.21-1.67 4.37a6.01 6.01 0 01-4.37 1.67 5.72 5.72 0 01-4.24-1.67 6.01 6.01 0 01-1.68-4.37V28.89c0-1.42.52-2.7 1.55-3.6a4.4 4.4 0 013.47-1.55h29.06c4.63 0 8.62.77 11.96 2.45a23.52 23.52 0 018.23 6.17c2.06 2.7 3.6 5.66 4.63 9 .9 3.34 1.42 6.69 1.42 10.16 0 3.22-.39 6.43-1.29 9.65a26.44 26.44 0 01-3.99 8.35 24.11 24.11 0 01-7.2 6.18c-2.95 1.8-6.56 2.7-10.67 3.08l17.36 24.7a7.36 7.36 0 011.16 4.63 5.44 5.44 0 01-2.57 3.72 5.58 5.58 0 01-4.38 1.16 6.6 6.6 0 01-3.98-2.7L238 79.17zM313.75 74.41v26.75h37.03c1.55 0 2.83.52 3.99 1.54a5.43 5.43 0 011.67 4.12c0 1.54-.51 2.83-1.67 3.86a5.35 5.35 0 01-3.99 1.67h-42.95a5.83 5.83 0 01-4.24-1.8 6.12 6.12 0 01-1.8-4.37V29.92c0-1.68.64-3.22 1.8-4.38a5.83 5.83 0 014.24-1.8h41.4c1.55 0 2.84.52 4 1.55a5.35 5.35 0 011.67 3.98c0 1.67-.52 2.96-1.67 3.99a5.35 5.35 0 01-4 1.67h-35.48v28.3h30.6c1.55 0 2.83.5 3.99 1.54a5.43 5.43 0 011.67 4.11c0 1.55-.51 2.83-1.67 3.86a5.35 5.35 0 01-3.99 1.67h-30.6zM395.02 90.1a12.57 12.57 0 002.32 4.76 22.72 22.72 0 003.98 3.86 20.1 20.1 0 005.53 2.7c2.19.64 4.38 1.03 6.82 1.03 2.96 0 5.53-.39 7.71-1.16 2.2-.9 4.12-1.93 5.53-3.22a14.6 14.6 0 003.48-4.63 12.58 12.58 0 001.15-5.27c0-2.18-.38-3.98-1.28-5.66a13.47 13.47 0 00-3.47-4.11 16.45 16.45 0 00-4.76-2.96c-1.8-.64-3.6-1.29-5.53-1.8l-11.45-2.83c-4.76-1.16-8.49-2.57-11.31-4.5-2.83-1.93-5.02-3.86-6.56-5.92a18.95 18.95 0 01-3.09-6.55 35.98 35.98 0 01-.64-6.18c0-3.73.77-7.07 2.31-10.16a26.9 26.9 0 016.3-7.84 28.95 28.95 0 019.13-5.15c3.48-1.15 7.2-1.8 10.94-1.8 7.07 0 13.11 1.68 17.87 5.15a24.38 24.38 0 019.65 13.63c.25.9.38 1.93.38 2.96 0 1.41-.38 2.7-1.28 3.86-.9 1.02-2.45 1.54-4.63 1.54a6.55 6.55 0 01-3.35-.9c-1.03-.52-1.8-1.54-2.18-3.22-1.16-4.11-3.09-7.07-6.05-8.87-2.96-1.8-6.43-2.7-10.54-2.7-2.19 0-4.25.26-6.3.9a22.62 22.62 0 00-5.28 2.7A13.09 13.09 0 00396.7 42a11.32 11.32 0 00-1.28 5.53c0 .9.13 1.93.38 3.1a8.63 8.63 0 001.67 3.46c.9 1.16 2.2 2.32 3.86 3.22a22 22 0 006.69 2.57l11.57 2.83c7.6 1.93 13.5 4.89 17.62 9 4.25 4.12 6.3 9.26 6.3 15.3 0 3.6-.64 6.95-2.05 10.16a23.77 23.77 0 01-5.8 8.5 26.4 26.4 0 01-9.38 5.78 34.97 34.97 0 01-12.6 2.19c-7.85 0-14.28-1.93-19.3-5.66-5-3.73-8.48-8.36-10.28-14.02a8.91 8.91 0 01-.39-2.57c0-1.8.65-3.22 1.8-4.12a6.64 6.64 0 014.12-1.41c1.29 0 2.44.38 3.34 1.15.9.9 1.68 1.93 2.06 3.1zM467.3 34.93a5.35 5.35 0 01-4-1.67 4.98 4.98 0 01-1.66-3.99c0-1.54.51-2.83 1.67-3.86a5.35 5.35 0 013.99-1.67h56.32c1.55 0 2.83.52 3.99 1.67a4.89 4.89 0 011.67 3.86c0 1.67-.51 2.96-1.67 3.99a5.35 5.35 0 01-3.99 1.67H501.5v72.02c0 1.67-.51 3.08-1.67 4.24a6.12 6.12 0 01-4.37 1.8 5.83 5.83 0 01-4.24-1.8 5.72 5.72 0 01-1.68-4.24V34.93H467.3zM534.43 68.24c0-6.3 1.15-12.09 3.47-17.62a46.68 46.68 0 019.51-14.53 44.16 44.16 0 0114.15-9.78 42.35 42.35 0 0117.62-3.6c6.3 0 12.22 1.16 17.75 3.6a44.73 44.73 0 0114.27 9.78c3.99 4.11 7.2 9 9.52 14.53a44.86 44.86 0 013.47 17.62 45.5 45.5 0 01-12.99 32.15 44.73 44.73 0 01-14.27 9.77 45.5 45.5 0 01-17.75 3.48 45.5 45.5 0 01-17.75-3.48 45.62 45.62 0 01-14.14-9.77 45.74 45.74 0 01-9.4-14.4 45.5 45.5 0 01-3.46-17.75zm11.96 0c0 4.76.77 9.13 2.44 13.24a36.21 36.21 0 006.94 10.8 38.7 38.7 0 0010.42 7.2 33.91 33.91 0 0012.99 2.58c4.63 0 9-.9 12.99-2.57a35.67 35.67 0 0010.54-7.2 36.21 36.21 0 006.95-10.8 34.67 34.67 0 002.44-13.25c0-4.76-.77-9.13-2.44-13.25a36.21 36.21 0 00-6.95-10.8 31.42 31.42 0 00-10.54-7.2 31.33 31.33 0 00-13-2.7c-4.62 0-8.86.9-12.85 2.7a30.9 30.9 0 00-10.42 7.2 33.86 33.86 0 00-6.94 10.8 34.73 34.73 0 00-2.57 13.25zM654.28 34.93v33.05h21.1c2.7 0 4.88-.51 6.81-1.41 1.93-.9 3.47-2.19 4.63-3.73a15.5 15.5 0 002.57-5.28c.52-1.92.77-3.98.77-6.04s-.25-4.11-.77-6.04a15.24 15.24 0 00-2.44-5.28 12.75 12.75 0 00-4.5-3.73 13.02 13.02 0 00-6.56-1.54h-21.6zm11.32 44.24h-11.44v27.78c0 1.67-.52 3.21-1.68 4.37a6.01 6.01 0 01-4.37 1.67 5.72 5.72 0 01-4.24-1.67 6.01 6.01 0 01-1.67-4.37V28.89c0-1.42.51-2.7 1.54-3.6a4.4 4.4 0 013.47-1.55h29.07c4.62 0 8.61.77 11.96 2.45a23.52 23.52 0 018.23 6.17c2.05 2.7 3.6 5.66 4.63 9 .9 3.34 1.41 6.69 1.41 10.16 0 3.22-.39 6.43-1.29 9.65a26.44 26.44 0 01-3.98 8.35 24.11 24.11 0 01-7.2 6.18c-2.96 1.8-6.56 2.7-10.68 3.08l17.36 24.7a7.36 7.36 0 011.16 4.63 5.44 5.44 0 01-2.57 3.72 5.58 5.58 0 01-4.37 1.16 6.6 6.6 0 01-4-2.7L665.6 79.17zM736.2 74.41v26.75h37.04c1.54 0 2.83.52 3.99 1.54a5.43 5.43 0 011.67 4.12c0 1.54-.52 2.83-1.67 3.86a5.35 5.35 0 01-4 1.67H730.3a5.83 5.83 0 01-4.25-1.8 6.12 6.12 0 01-1.8-4.37V29.92c0-1.68.64-3.22 1.8-4.38a5.83 5.83 0 014.25-1.8h41.4c1.55 0 2.83.52 4 1.55a5.35 5.35 0 011.66 3.98c0 1.67-.51 2.96-1.67 3.99a5.35 5.35 0 01-3.98 1.67h-35.5v28.3h30.6c1.55 0 2.84.5 4 1.54a5.43 5.43 0 011.67 4.11c0 1.55-.52 2.83-1.67 3.86a5.35 5.35 0 01-4 1.67h-30.6z"/><g><path fill="#6e6f73" fill-rule="nonzero" d="M233.76 145.16c0 3.4-.93 6.24-2.8 8.52-1.86 2.28-4.4 3.4-7.62 3.4-3.23 0-5.76-1.15-7.64-3.43-1.89-2.28-2.81-5.12-2.81-8.49 0-3.4.92-6.24 2.8-8.52 1.86-2.24 4.4-3.37 7.65-3.37s5.8 1.13 7.64 3.4c1.85 2.25 2.78 5.09 2.78 8.5zm-14.75-6.24c-1.08 1.52-1.61 3.6-1.61 6.24 0 2.61.53 4.69 1.61 6.24a5.07 5.07 0 004.36 2.31c1.8 0 3.22-.76 4.3-2.3 1.07-1.56 1.61-3.64 1.61-6.25 0-2.64-.54-4.72-1.61-6.24a5.05 5.05 0 00-4.3-2.31c-1.82 0-3.29.76-4.36 2.31zM237.64 133.67l10.21.03c2.18 0 3.91.56 5.17 1.69a5.64 5.64 0 011.91 4.49c0 1.75-.5 3.27-1.5 4.49a6.4 6.4 0 01-4.26 2.21l7.2 10.14h-5.11l-6.93-10h-2.24v10h-4.45v-23.05zm4.42 9.58h5.8c.92 0 1.6-.27 2.02-.8.45-.56.66-1.38.66-2.54 0-1.02-.18-1.75-.6-2.15-.38-.4-1.07-.59-2.09-.59h-5.79v6.08zM257.23 133.64h20.36v3.46h-7.97v19.59h-4.42V137.1h-7.97v-3.46zM293.3 133.64h4.42v23.05h-4.42v-10.27h-9.2v10.27h-4.42v-23.05h4.42v9.3h9.2v-9.3zM323.04 145.16c0 3.4-.93 6.24-2.8 8.52-1.86 2.28-4.4 3.4-7.62 3.4-3.23 0-5.77-1.15-7.65-3.43-1.88-2.28-2.8-5.12-2.8-8.49 0-3.4.92-6.24 2.8-8.52 1.86-2.24 4.4-3.37 7.65-3.37s5.79 1.13 7.64 3.4c1.85 2.25 2.78 5.09 2.78 8.5zm-14.75-6.24c-1.08 1.52-1.61 3.6-1.61 6.24 0 2.61.53 4.69 1.6 6.24a5.07 5.07 0 004.37 2.31c1.79 0 3.22-.76 4.3-2.3 1.07-1.56 1.61-3.64 1.61-6.25 0-2.64-.54-4.72-1.61-6.24a5.05 5.05 0 00-4.3-2.31c-1.82 0-3.29.76-4.36 2.31zM326.56 133.64h9.7c2.3 0 4.1.6 5.44 1.78a5.98 5.98 0 011.97 4.72c0 2.05-.66 3.77-1.94 5.12-1.28 1.35-3.1 2.05-5.46 2.05H331v9.38h-4.45v-23.05zm4.45 10.2h4.8c1.2.03 2.07-.26 2.6-.9.54-.62.78-1.54.72-2.77-.06-1.15-.33-1.98-.83-2.4-.48-.43-1.23-.67-2.27-.67H331v6.74zM347.67 133.64l16.78.03v3.47h-12.33v5.84h10.06v3.47h-10.06v6.77h12.6v3.47h-17.05v-23.05zM367.89 133.64h9.07c3.23 0 5.7 1.05 7.44 3.2 1.7 2.11 2.57 4.89 2.57 8.32 0 1.55-.21 3.04-.63 4.43a12.89 12.89 0 01-1.85 3.66 8.7 8.7 0 01-3.17 2.51 9.83 9.83 0 01-4.36.93h-9.07v-23.05zm4.42 19.58h4.68c1.73 0 3.08-.73 4-2.15.96-1.45 1.44-3.43 1.44-5.9 0-5.36-1.82-8.03-5.47-8.03h-4.65v16.08z"/><path fill="#6e6f73" d="M391.03 133.67h4.42v23.05h-4.42z"/><path fill="#6e6f73" fill-rule="nonzero" d="M415.36 148.46l4.36.86a10.05 10.05 0 01-3.25 5.58 9.01 9.01 0 01-6.21 2.18c-3.23 0-5.77-1.15-7.65-3.43-1.88-2.28-2.8-5.12-2.8-8.49 0-3.4.92-6.24 2.77-8.52 1.88-2.24 4.42-3.37 7.68-3.37 2.5 0 4.56.73 6.2 2.18a9.98 9.98 0 013.23 5.55l-4.3.83c-.45-1.82-1.07-3.14-1.9-3.97a4.38 4.38 0 00-3.26-1.25c-1.82 0-3.29.76-4.36 2.28-1.08 1.55-1.62 3.63-1.62 6.27 0 2.61.54 4.66 1.62 6.2a5.1 5.1 0 004.33 2.35c1.34 0 2.42-.43 3.22-1.28.84-.83 1.5-2.15 1.94-3.97zM433.52 146.88l-4.6-1.03c-2.15-.42-3.7-1.05-4.69-1.88a4.95 4.95 0 01-1.82-4.03c0-1.45.45-2.7 1.31-3.76a7.58 7.58 0 013.26-2.25 13.2 13.2 0 014.2-.66c2.13 0 4.04.5 5.77 1.46 1.73.95 2.87 2.14 3.4 3.56l-4.24.86c-.98-1.75-2.62-2.64-4.9-2.64-1.4 0-2.47.3-3.22.86-.74.56-1.07 1.42-1.04 2.57.03 1.26.9 2.05 2.54 2.35l4.74.96c.45.1.87.2 1.26.3.36.1.9.32 1.6.65.7.33 1.3.7 1.77 1.13.45.43.87 1.05 1.26 1.81.38.76.56 1.62.56 2.58 0 1.09-.18 2.05-.56 2.9a5.6 5.6 0 01-1.44 2.08c-.6.57-1.28 1-2.09 1.36-.77.36-1.55.63-2.33.76a12 12 0 01-2.42.23c-.8 0-1.55-.03-2.24-.1-.68-.07-1.46-.23-2.35-.5a8.16 8.16 0 01-2.4-.99 7.82 7.82 0 01-1.96-1.81 7.89 7.89 0 01-1.4-2.78l4.26-.85c.27.79.66 1.45 1.1 1.98.46.56 1 .95 1.56 1.19a8.6 8.6 0 003.43.62c2.87 0 4.3-1.32 4.3-3.96 0-1.58-.86-2.58-2.62-2.97zM466.03 157.28l-.68-1.32a8.21 8.21 0 01-4.93 1.58c-2.24 0-4.03-.69-5.35-2.1a7.74 7.74 0 01-1.94-5.42c0-2.78 1.68-5.32 4.99-7.63a11.01 11.01 0 01-1.28-4.86 4.95 4.95 0 015.07-5.05c1.58 0 2.84.5 3.7 1.45a4.78 4.78 0 011.2 3.6 5.87 5.87 0 01-1.55 3.64c-.6.62-1.44 1.28-2.48 2.01l3.16 5.84c.51-.79.9-1.48 1.17-2.04l3.73.72c-.36.96-.78 1.92-1.22 2.81-.33.76-.84 1.65-1.47 2.64l2.21 4.13h-4.33zm-2.3-4.42l-4.03-7.4c-1.5 1.35-2.24 2.87-2.24 4.56 0 1.42.3 2.47.9 3.17a3 3 0 002.39 1.02c1.1 0 2.09-.46 2.98-1.35zm-1.82-17.24c-.33.03-.6.2-.8.5-.21.32-.3.79-.3 1.41 0 .9.24 1.82.68 2.78a4.36 4.36 0 001.5-2.81c.09-1.25-.27-1.88-1.08-1.88zM494.6 146.88l-4.6-1.03c-2.14-.42-3.7-1.05-4.68-1.88a4.95 4.95 0 01-1.82-4.03c0-1.45.45-2.7 1.31-3.76a7.58 7.58 0 013.26-2.25 13.2 13.2 0 014.2-.66c2.13 0 4.04.5 5.77 1.46 1.73.95 2.87 2.14 3.4 3.56l-4.23.86c-.99-1.75-2.63-2.64-4.9-2.64-1.4 0-2.48.3-3.23.86-.74.56-1.07 1.42-1.04 2.57.03 1.26.9 2.05 2.54 2.35l4.74.96c.45.1.87.2 1.26.3.36.1.9.32 1.61.65.69.33 1.28.7 1.76 1.13.45.43.87 1.05 1.26 1.81.38.76.56 1.62.56 2.58 0 1.09-.18 2.05-.56 2.9a5.6 5.6 0 01-1.44 2.08c-.6.57-1.28 1-2.09 1.36-.77.36-1.55.63-2.33.76a12 12 0 01-2.41.23c-.81 0-1.56-.03-2.24-.1-.7-.07-1.47-.23-2.36-.5a8.16 8.16 0 01-2.4-.99 7.82 7.82 0 01-1.96-1.81 7.89 7.89 0 01-1.4-2.78l4.26-.85c.27.79.66 1.45 1.1 1.98.46.56 1 .95 1.56 1.19a8.6 8.6 0 003.44.62c2.86 0 4.3-1.32 4.3-3.96 0-1.58-.87-2.58-2.63-2.97zM506.76 133.64h9.7c2.3 0 4.1.6 5.44 1.78a5.98 5.98 0 011.97 4.72c0 2.05-.66 3.77-1.94 5.12-1.28 1.35-3.1 2.05-5.47 2.05h-5.25v9.38h-4.45v-23.05zm4.45 10.2h4.8c1.2.03 2.07-.26 2.6-.9.54-.62.78-1.54.72-2.77-.06-1.15-.33-1.98-.83-2.4-.48-.43-1.23-.67-2.27-.67h-5.02v6.74zM547.07 145.16c0 3.4-.93 6.24-2.8 8.52-1.86 2.28-4.4 3.4-7.62 3.4-3.23 0-5.76-1.15-7.64-3.43-1.89-2.28-2.81-5.12-2.81-8.49 0-3.4.92-6.24 2.8-8.52 1.86-2.24 4.4-3.37 7.65-3.37s5.8 1.13 7.64 3.4c1.85 2.25 2.78 5.09 2.78 8.5zm-14.75-6.24c-1.07 1.52-1.61 3.6-1.61 6.24 0 2.61.54 4.69 1.61 6.24a5.07 5.07 0 004.36 2.31c1.8 0 3.22-.76 4.3-2.3 1.07-1.56 1.61-3.64 1.61-6.25 0-2.64-.54-4.72-1.61-6.24a5.05 5.05 0 00-4.3-2.31c-1.82 0-3.28.76-4.36 2.31zM550.65 133.67l10.22.03c2.17 0 3.9.56 5.16 1.69a5.64 5.64 0 011.91 4.49c0 1.75-.5 3.27-1.5 4.49a6.4 6.4 0 01-4.26 2.21l7.2 10.14h-5.11l-6.93-10h-2.24v10h-4.45v-23.05zm4.42 9.58h5.8c.92 0 1.6-.27 2.03-.8.44-.56.65-1.38.65-2.54 0-1.02-.18-1.75-.6-2.15-.38-.4-1.07-.59-2.08-.59h-5.8v6.08zM570.24 133.64h20.36v3.46h-7.97v19.59h-4.42V137.1h-7.97v-3.46zM603.12 146.88l-4.6-1.03c-2.15-.42-3.7-1.05-4.7-1.88a4.95 4.95 0 01-1.81-4.03c0-1.45.45-2.7 1.31-3.76a7.58 7.58 0 013.26-2.25 13.2 13.2 0 014.2-.66c2.13 0 4.04.5 5.77 1.46 1.73.95 2.87 2.14 3.4 3.56l-4.24.86c-.98-1.75-2.62-2.64-4.9-2.64-1.4 0-2.47.3-3.22.86s-1.07 1.42-1.04 2.57c.03 1.26.9 2.05 2.53 2.35l4.75.96c.45.1.87.2 1.26.3.35.1.9.32 1.6.65.7.33 1.3.7 1.77 1.13.45.43.87 1.05 1.25 1.81.4.76.57 1.62.57 2.58 0 1.09-.18 2.05-.57 2.9a5.6 5.6 0 01-1.43 2.08c-.6.57-1.28 1-2.09 1.36-.78.36-1.55.63-2.33.76a12 12 0 01-2.42.23c-.8 0-1.55-.03-2.24-.1-.68-.07-1.46-.23-2.36-.5a8.16 8.16 0 01-2.38-.99 7.82 7.82 0 01-1.97-1.81 7.89 7.89 0 01-1.4-2.78l4.26-.85c.27.79.66 1.45 1.1 1.98.45.56 1 .95 1.56 1.19a8.6 8.6 0 003.43.62c2.87 0 4.3-1.32 4.3-3.96 0-1.58-.86-2.58-2.62-2.97zM637.78 133.67h5.82v23.05h-4.42v-13.3l-4.24 13.3h-4.06l-4.2-13.3v13.3h-4.43v-23.05h5.86l4.83 15.39 4.84-15.39zM649.84 133.64l16.79.03v3.47h-12.34v5.84h10.07v3.47h-10.07v6.77h12.6v3.47h-17.05v-23.05zM670.06 133.64h9.08c3.22 0 5.7 1.05 7.43 3.2 1.7 2.11 2.57 4.89 2.57 8.32 0 1.55-.21 3.04-.63 4.43a12.89 12.89 0 01-1.85 3.66 8.7 8.7 0 01-3.16 2.51 9.83 9.83 0 01-4.36.93h-9.08v-23.05zm4.42 19.58h4.69c1.73 0 3.07-.73 4-2.15.95-1.45 1.43-3.43 1.43-5.9 0-5.36-1.82-8.03-5.46-8.03h-4.66v16.08z"/><path fill="#6e6f73" d="M692.9 133.67h4.42v23.05h-4.42z"/><path fill="#6e6f73" fill-rule="nonzero" d="M717.53 148.46l4.36.86a10.05 10.05 0 01-3.25 5.58 9.01 9.01 0 01-6.21 2.18c-3.23 0-5.76-1.15-7.65-3.43-1.88-2.28-2.8-5.12-2.8-8.49 0-3.4.92-6.24 2.78-8.52 1.88-2.24 4.41-3.37 7.67-3.37 2.5 0 4.57.73 6.21 2.18a9.98 9.98 0 013.22 5.55l-4.3.83c-.44-1.82-1.07-3.14-1.9-3.97a4.38 4.38 0 00-3.26-1.25c-1.82 0-3.29.76-4.36 2.28-1.08 1.55-1.61 3.63-1.61 6.27 0 2.61.53 4.66 1.61 6.2a5.1 5.1 0 004.33 2.35c1.34 0 2.42-.43 3.22-1.28.84-.83 1.5-2.15 1.94-3.97z"/><path fill="#6e6f73" d="M726.04 133.67h4.42v23.05h-4.42z"/><path fill="#6e6f73" fill-rule="nonzero" d="M750.11 133.64h4.45v23.05h-4.66l-8.96-15.3v15.3h-4.44v-23.05h4.6l9.01 15.38v-15.38zM760.35 133.64l16.78.03v3.47H764.8v5.84h10.06v3.47H764.8v6.77h12.6v3.47h-17.05v-23.05z"/></g></svg>