<svg xmlns="http://www.w3.org/2000/svg" fill-rule="evenodd" viewBox="0 0 42 40" clip-rule="evenodd"><path fill="#fff" stroke="#a4a4a4" stroke-width=".2" d="M38.54 14.63c-.42-6.37-5.3-11.5-11.77-11.77-3.88-.15-7.8-.14-11.78 0C8.5 3.1 3.22 8.13 3.22 14.63c-.18 3.42-.23 6.85 0 10.3.4 6.28 5.5 11.52 11.76 11.77 3.9.16 7.82.23 11.77 0 6.1-.35 11.45-5.35 11.77-11.76.17-3.44.22-6.87 0-10.3z"/><path fill="#30bfcd" d="M8.67 13.46s0-.02.02-.04c1-1.97 2.75-4.06 5.32-5.55 1.06-.6 2.52-1.23 3.87-1.53 1.7-.37 3.2-.34 3.2-.34 3.07 0 5.72 1.85 7.1 4.53.62 1.2 1 2.58 1 4.06 0 .28.02.87 0 1.1-.17 1.58-.74 3.1-1.77 4.2-.84 1.05-2.1 1.7-3.46 2.14 0 0-.03 0-.05.02 1.02-1.14.8-3.95.17-5.9-1.02-3.15-3.77-5.12-6.6-5.48-.7-.1-1.4-.13-2.14-.1-2.52.12-4.88 1.14-6.66 2.85 0 0-.02.02-.03.04z"/><path fill="#09a3c7" d="M27.4 7.58c.02 0 .03 0 .04.02 1.97 1.02 4.07 2.76 5.55 5.33.6 1.06 1.22 2.52 1.52 3.87.37 1.7.33 3.2.33 3.2 0 3.08-1.85 5.73-4.53 7.1-1.22.63-2.58 1.02-4.06 1-.3 0-.88.03-1.12 0-1.57-.17-3.1-.74-4.2-1.77-1.04-.84-1.7-2.1-2.13-3.46 0-.02 0-.03 0-.05 1.13 1.02 3.94.8 5.9.17 3.14-1.02 5.12-3.76 5.48-6.58.1-.7.13-1.4.1-2.15-.1-2.53-1.13-4.88-2.84-6.66-.02 0-.03 0-.04-.02z"/><path fill="#30bfcd" d="M33.33 26.28s0 .02-.02.04c-1 1.97-2.74 4.08-5.3 5.57-1.06.6-2.5 1.23-3.87 1.53-1.7.38-3.2.35-3.2.35-3.07 0-5.73-1.83-7.12-4.5-.62-1.2-1-2.58-1-4.05-.02-.3-.03-.9 0-1.13.16-1.56.72-3.1 1.75-4.2.83-1.04 2.1-1.7 3.45-2.14 0 0 .03-.02.05-.02-1 1.14-.78 3.95-.15 5.9 1.03 3.14 3.77 5.1 6.6 5.46.7.08 1.4.12 2.15.08 2.52-.12 4.87-1.15 6.65-2.87 0 0 .02 0 .03-.02z"/><path fill="#09a3c7" d="M14.5 32.2s-.02 0-.03 0c-1.97-1.04-4.06-2.78-5.53-5.35-.6-1.07-1.23-2.53-1.52-3.88-.37-1.7-.33-3.2-.33-3.2 0-3.08 1.86-5.73 4.54-7.1 1.22-.62 2.6-1 4.06-1 .3 0 .9 0 1.13.02 1.56.17 3.08.74 4.2 1.78 1.02.83 1.68 2.1 2.1 3.46 0 0 .02.03.03.05-1.14-1.03-3.95-.82-5.9-.2-3.15 1-5.13 3.74-5.5 6.57-.1.7-.14 1.4-.1 2.14.1 2.54 1.1 4.9 2.82 6.68 0 0 .02.02.03.03z"/></svg>