<svg xmlns="http://www.w3.org/2000/svg" fill-rule="evenodd" viewBox="0 0 111 40" clip-rule="evenodd"><g font-family="'Inter-Regular', 'Inter', sans-serif"><text x="42.841" y="27.908" fill="#737373" font-size="3.812">ORTHOPEDICS &amp; SPORTS MEDICINE</text><text x="41.732" y="22.832" fill="#09a3c7" font-size="15.177">REST<tspan x="79.48" y="22.832">O</tspan>RE</text></g><path fill="#fff" stroke="#b3b3b3" stroke-width=".2" d="M36.8 14.63c-.4-6.37-5.3-11.5-11.77-11.77-3.88-.15-7.8-.14-11.77 0C6.76 3.1 1.5 8.13 1.5 14.63c-.18 3.42-.23 6.85 0 10.3.4 6.28 5.5 11.52 11.76 11.77 3.9.16 7.82.23 11.77 0 6.1-.35 11.45-5.35 11.77-11.76.17-3.44.22-6.87 0-10.3z"/><path fill="#30bfcd" d="M6.93 13.46s.02-.02.02-.04c1.03-1.97 2.77-4.06 5.33-5.55 1.06-.6 2.52-1.23 3.87-1.53 1.7-.37 3.2-.34 3.2-.34 3.08 0 5.73 1.85 7.1 4.53.64 1.2 1.02 2.58 1.02 4.06 0 .28.02.87 0 1.1-.18 1.58-.75 3.1-1.78 4.2-.84 1.05-2.1 1.7-3.46 2.14-.02 0-.04 0-.06.02 1.02-1.14.8-3.95.17-5.9-1-3.15-3.75-5.12-6.58-5.48-.7-.1-1.4-.13-2.15-.1-2.52.12-4.87 1.14-6.65 2.85 0 0-.03.02-.04.04z"/><path fill="#09a3c7" d="M25.67 7.58s.02 0 .04.02c1.98 1.02 4.07 2.76 5.55 5.33.62 1.06 1.24 2.52 1.53 3.87.37 1.7.34 3.2.34 3.2 0 3.08-1.86 5.73-4.54 7.1-1.2.63-2.58 1.02-4.06 1-.3 0-.88.03-1.12 0-1.56-.17-3.08-.74-4.2-1.77-1.03-.84-1.7-2.1-2.12-3.46 0-.02 0-.03-.02-.05 1.14 1.02 3.94.8 5.9.17 3.14-1.02 5.12-3.76 5.5-6.58.08-.7.1-1.4.08-2.15-.1-2.53-1.13-4.88-2.84-6.66 0 0-.02 0-.03-.02z"/><path fill="#30bfcd" d="M31.6 26.28s-.02.02-.03.04c-1 1.97-2.75 4.08-5.3 5.57-1.06.6-2.52 1.23-3.87 1.53-1.7.38-3.2.35-3.2.35-3.08 0-5.74-1.83-7.13-4.5-.62-1.2-1.02-2.58-1.02-4.05 0-.3-.02-.9 0-1.13.17-1.56.73-3.1 1.76-4.2.84-1.04 2.1-1.7 3.46-2.14.02 0 .03-.02.05-.02-1 1.14-.77 3.95-.13 5.9 1.02 3.14 3.77 5.1 6.6 5.46.7.08 1.4.12 2.14.08 2.54-.12 4.9-1.15 6.66-2.87 0 0 .02 0 .03-.02z"/><path fill="#09a3c7" d="M12.78 32.2c-.02 0-.03 0-.04 0-1.97-1.04-4.06-2.78-5.54-5.35-.6-1.07-1.23-2.53-1.52-3.88-.37-1.7-.32-3.2-.32-3.2 0-3.08 1.86-5.73 4.54-7.1 1.22-.62 2.6-1 4.07-1 .3 0 .88 0 1.12.02 1.55.17 3.07.74 4.2 1.78 1.02.83 1.67 2.1 2.1 3.46 0 0 0 .03.02.05-1.14-1.03-3.94-.82-5.9-.2-3.15 1-5.13 3.74-5.5 6.57-.1.7-.13 1.4-.1 2.14.1 2.54 1.12 4.9 2.82 6.68 0 0 .03.02.04.03z"/></svg>