<?xml version="1.0" encoding="utf-8"?>
<!-- Generator: Adobe Illustrator 24.1.0, SVG Export Plug-In . SVG Version: 6.00 Build 0)  -->
<svg version="1.2" baseProfile="tiny-ps"
	 id="svg22" xmlns:cc="http://creativecommons.org/ns#" xmlns:dc="http://purl.org/dc/elements/1.1/" xmlns:inkscape="http://www.inkscape.org/namespaces/inkscape" xmlns:rdf="http://www.w3.org/1999/02/22-rdf-syntax-ns#" xmlns:sodipodi="http://sodipodi.sourceforge.net/DTD/sodipodi-0.dtd" xmlns:svg="http://www.w3.org/2000/svg"
	 xmlns="http://www.w3.org/2000/svg" xmlns:xlink="http://www.w3.org/1999/xlink" viewBox="0 0 216 216"
	 xml:space="preserve">
   <title>Restore Orthopedics</title>
<g id="g16" transform="translate(22.002966,12.468339)" fill="#FFFFFF">
	<path id="path1" fill="#30bfcd" d="m 10.137,47.962 c 0.045,-0.088 0.089,-0.176 0.135,-0.263 C 16.847,35.02 28.038,21.556 44.504,12.025 51.326,8.077 60.712,4.066 69.407,2.163 80.366,-0.235 90.043,0.007 90.043,0.007 c 19.721,0 36.771,11.875 45.621,29.081 4.017,7.81 6.503,16.608 6.503,26.085 0,1.894 0.073,5.678 -0.089,7.209 -1.068,10.067 -4.733,19.848 -11.372,27.028 -5.347,6.645 -13.535,10.856 -22.19,13.66 -0.116,0.037 -0.232,0.075 -0.348,0.113 6.529,-7.309 5.118,-25.359 1.074,-37.915 -6.506,-20.203 -24.125,-32.884 -42.294,-35.23 -4.519,-0.583 -9.067,-0.812 -13.801,-0.6 -16.23,0.727 -31.347,7.31 -42.788,18.309 -0.074,0.071 -0.148,0.143 -0.222,0.215 z"/>
	<path id="path2" fill="#09a3c7"  d="m 130.55,10.102 c 0.088,0.044 0.175,0.089 0.263,0.135 12.672,6.587 26.125,17.792 35.639,34.267 3.942,6.827 7.943,16.217 9.837,24.914 2.388,10.961 2.136,20.638 2.136,20.638 -0.02,19.72 -11.912,36.759 -29.127,45.591 -7.813,4.009 -16.614,6.487 -26.091,6.478 -1.895,-0.002 -5.679,0.067 -7.209,-0.097 -10.066,-1.078 -19.843,-4.753 -27.017,-11.398 -6.639,-5.354 -10.843,-13.546 -13.637,-22.205 -0.038,-0.116 -0.076,-0.232 -0.114,-0.348 7.304,6.536 25.354,5.144 37.915,1.112 20.209,-6.486 32.908,-24.092 35.272,-42.259 0.588,-4.517 0.821,-9.065 0.614,-13.8 -0.711,-16.23 -7.279,-31.354 -18.266,-42.806 -0.071,-0.074 -0.143,-0.149 -0.215,-0.222 z"/>
	<path id="path3" fill="#30bfcd"  d="m 168.651,130.313 c -0.044,0.088 -0.089,0.175 -0.134,0.263 -6.531,12.701 -17.676,26.203 -34.11,35.79 -6.809,3.972 -16.181,8.015 -24.869,9.947 -10.951,2.436 -20.629,2.227 -20.629,2.227 -19.72,0.067 -36.811,-11.75 -45.72,-28.925 -4.043,-7.796 -6.56,-16.586 -6.592,-26.063 -0.007,-1.894 -0.092,-5.678 0.065,-7.209 1.033,-10.071 4.665,-19.864 11.279,-27.067 5.324,-6.663 13.498,-10.903 22.144,-13.735 0.116,-0.038 0.232,-0.077 0.347,-0.115 -6.504,7.332 -5.031,25.376 -0.945,37.919 6.576,20.18 24.238,32.801 42.415,35.085 4.52,0.568 9.069,0.781 13.803,0.553 16.226,-0.782 31.322,-7.417 42.725,-18.454 0.074,-0.072 0.148,-0.144 0.221,-0.216 z"/>
	<path id="path4" fill="#09a3c7"  d="m 47.697,168.472 c -0.087,-0.044 -0.175,-0.09 -0.262,-0.135 C 34.779,161.72 21.352,150.484 11.876,133.986 7.95,127.151 3.971,117.751 2.097,109.05 -0.264,98.083 0.01,88.407 0.01,88.407 0.076,68.686 12.008,51.676 29.243,42.884 c 7.823,-3.991 16.63,-6.449 26.107,-6.417 1.894,0.006 5.678,-0.054 7.208,0.114 10.064,1.101 19.832,4.799 26.99,11.461 6.627,5.369 10.811,13.571 13.586,22.237 0.037,0.116 0.074,0.232 0.112,0.348 C 95.958,64.074 77.905,65.424 65.335,69.426 45.11,75.865 32.37,93.441 29.964,111.602 c -0.599,4.517 -0.843,9.064 -0.646,13.799 0.672,16.232 7.205,31.371 18.165,42.849 0.071,0.074 0.143,0.149 0.214,0.222 z"/>
</g>
</svg>
