<?xml version="1.0" encoding="UTF-8" standalone="no"?><!DOCTYPE svg PUBLIC "-//W3C//DTD SVG 1.1//EN" "http://www.w3.org/Graphics/SVG/1.1/DTD/svg11.dtd"><svg width="100%" height="100%" viewBox="0 0 743 513" version="1.1" xmlns="http://www.w3.org/2000/svg" xmlns:xlink="http://www.w3.org/1999/xlink" xml:space="preserve" xmlns:serif="http://www.serif.com/" style="fill-rule:evenodd;clip-rule:evenodd;stroke-linejoin:round;stroke-miterlimit:2;"><g><path d="M173.412,249.633c0.024,-0.048 0.047,-0.095 0.072,-0.142c3.545,-6.835 9.578,-14.094 18.455,-19.232c3.678,-2.129 8.738,-4.291 13.426,-5.317c5.908,-1.293 11.125,-1.162 11.125,-1.162c10.632,-0 19.823,6.402 24.595,15.678c2.165,4.21 3.505,8.953 3.505,14.062c0,1.021 0.04,3.061 -0.048,3.887c-0.575,5.427 -2.551,10.7 -6.13,14.571c-2.883,3.582 -7.297,5.852 -11.963,7.364c-0.063,0.02 -0.125,0.041 -0.188,0.061c3.52,-3.94 2.759,-13.671 0.579,-20.44c-3.507,-10.892 -13.006,-17.729 -22.801,-18.993c-2.436,-0.315 -4.888,-0.438 -7.44,-0.324c-8.75,0.392 -16.9,3.941 -23.068,9.871c-0.04,0.038 -0.08,0.077 -0.119,0.116Z" style="fill:#30bfcd;"/><path d="M238.328,229.222c0.047,0.024 0.094,0.048 0.141,0.073c6.832,3.551 14.085,9.592 19.214,18.473c2.125,3.681 4.282,8.743 5.303,13.432c1.287,5.909 1.152,11.126 1.152,11.126c-0.011,10.631 -6.422,19.817 -15.703,24.579c-4.212,2.161 -8.957,3.497 -14.066,3.492c-1.022,-0.001 -3.062,0.036 -3.887,-0.052c-5.426,-0.581 -10.697,-2.563 -14.565,-6.145c-3.579,-2.886 -5.845,-7.303 -7.352,-11.971c-0.02,-0.062 -0.041,-0.125 -0.061,-0.188c3.938,3.524 13.669,2.774 20.44,0.6c10.895,-3.497 17.741,-12.988 19.016,-22.782c0.317,-2.436 0.442,-4.887 0.331,-7.44c-0.383,-8.75 -3.924,-16.903 -9.848,-23.077c-0.038,-0.04 -0.077,-0.081 -0.115,-0.12Z" style="fill:#09a3c7;"/><path d="M258.868,294.029c-0.023,0.048 -0.048,0.094 -0.072,0.142c-3.521,6.847 -9.529,14.126 -18.389,19.295c-3.671,2.141 -8.723,4.321 -13.407,5.362c-5.904,1.314 -11.122,1.201 -11.122,1.201c-10.631,0.036 -19.845,-6.335 -24.648,-15.594c-2.179,-4.203 -3.536,-8.942 -3.554,-14.051c-0.003,-1.021 -0.049,-3.061 0.035,-3.886c0.557,-5.43 2.515,-10.709 6.081,-14.592c2.87,-3.592 7.277,-5.878 11.938,-7.405c0.063,-0.021 0.125,-0.042 0.187,-0.062c-3.506,3.953 -2.712,13.68 -0.509,20.442c3.545,10.88 13.067,17.684 22.866,18.915c2.437,0.306 4.889,0.421 7.442,0.298c8.747,-0.421 16.886,-3.998 23.033,-9.948c0.04,-0.039 0.08,-0.078 0.119,-0.117Z" style="fill:#30bfcd;"/><path d="M193.661,314.601c-0.047,-0.024 -0.095,-0.048 -0.142,-0.073c-6.823,-3.567 -14.061,-9.624 -19.17,-18.519c-2.117,-3.685 -4.262,-8.752 -5.272,-13.443c-1.273,-5.912 -1.125,-11.129 -1.125,-11.129c0.036,-10.632 6.468,-19.802 15.76,-24.542c4.217,-2.151 8.965,-3.477 14.074,-3.459c1.021,0.003 3.061,-0.029 3.886,0.061c5.426,0.594 10.692,2.587 14.551,6.179c3.573,2.894 5.828,7.316 7.324,11.988c0.02,0.063 0.04,0.125 0.061,0.188c-3.929,-3.533 -13.662,-2.805 -20.439,-0.648c-10.903,3.472 -17.771,12.947 -19.069,22.738c-0.322,2.435 -0.454,4.886 -0.348,7.439c0.362,8.751 3.885,16.912 9.793,23.1c0.038,0.04 0.077,0.081 0.116,0.12Z" style="fill:#09a3c7;"/><g><g><path d="M290.154,242.608l-0,17.818l11.37,-0c1.456,-0 2.634,-0.278 3.674,-0.763c1.04,-0.485 1.872,-1.179 2.496,-2.011c0.624,-0.831 1.11,-1.802 1.387,-2.842c0.277,-1.04 0.416,-2.149 0.416,-3.259c-0,-1.109 -0.139,-2.218 -0.416,-3.258c-0.277,-1.04 -0.693,-2.011 -1.317,-2.843c-0.624,-0.832 -1.456,-1.525 -2.427,-2.01c-0.971,-0.555 -2.149,-0.832 -3.536,-0.832l-11.647,-0Zm6.101,23.849l-6.171,0l0,14.976c0,0.901 -0.277,1.733 -0.901,2.357c-0.624,0.624 -1.456,0.901 -2.357,0.901c-0.901,0 -1.664,-0.277 -2.288,-0.901c-0.624,-0.624 -0.901,-1.456 -0.901,-2.357l-0,-42.084c-0,-0.762 0.277,-1.456 0.832,-1.941c0.485,-0.555 1.109,-0.832 1.872,-0.832l15.668,0c2.496,0 4.645,0.416 6.448,1.317c1.803,0.832 3.258,1.942 4.437,3.328c1.109,1.456 1.941,3.051 2.496,4.853c0.485,1.803 0.763,3.605 0.763,5.477c-0,1.734 -0.208,3.467 -0.694,5.2c-0.485,1.664 -1.178,3.189 -2.149,4.507c-1.04,1.317 -2.288,2.426 -3.882,3.328c-1.595,0.97 -3.536,1.455 -5.755,1.663l9.36,13.312c0.485,0.763 0.693,1.594 0.624,2.496c-0.139,0.832 -0.624,1.525 -1.387,2.01c-0.763,0.555 -1.525,0.763 -2.357,0.624c-0.901,-0.208 -1.595,-0.693 -2.149,-1.456l-11.509,-16.778Z" style="fill:#09a3c7;fill-rule:nonzero;"/></g><g><path d="M337.091,263.892l-0,14.421l19.967,-0c0.832,-0 1.525,0.277 2.149,0.832c0.624,0.624 0.901,1.317 0.901,2.218c0,0.832 -0.277,1.526 -0.901,2.08c-0.624,0.624 -1.317,0.902 -2.149,0.902l-23.157,-0c-0.901,-0 -1.664,-0.347 -2.288,-0.971c-0.623,-0.624 -0.97,-1.456 -0.97,-2.357l-0,-41.113c-0,-0.901 0.347,-1.733 0.97,-2.357c0.624,-0.624 1.387,-0.971 2.288,-0.971l22.325,0c0.832,0 1.525,0.277 2.149,0.832c0.624,0.624 0.901,1.317 0.901,2.149c0,0.902 -0.277,1.595 -0.901,2.149c-0.624,0.624 -1.317,0.902 -2.149,0.902l-19.135,-0l-0,15.252l16.5,0c0.832,0 1.525,0.278 2.149,0.832c0.624,0.624 0.902,1.318 0.902,2.219c-0,0.832 -0.278,1.525 -0.902,2.08c-0.624,0.624 -1.317,0.901 -2.149,0.901l-16.5,0Z" style="fill:#09a3c7;fill-rule:nonzero;"/></g><g><path d="M380.907,272.351c0.208,0.901 0.624,1.733 1.248,2.565c0.624,0.762 1.318,1.456 2.15,2.08c0.901,0.624 1.872,1.109 2.981,1.456c1.178,0.346 2.357,0.554 3.674,0.554c1.595,0 2.982,-0.208 4.16,-0.624c1.179,-0.485 2.219,-1.04 2.981,-1.733c0.832,-0.763 1.456,-1.595 1.872,-2.496c0.416,-0.901 0.624,-1.872 0.624,-2.842c0,-1.179 -0.208,-2.15 -0.693,-3.051c-0.485,-0.901 -1.109,-1.595 -1.872,-2.219c-0.763,-0.693 -1.595,-1.178 -2.565,-1.594c-0.971,-0.347 -1.941,-0.693 -2.981,-0.971l-6.171,-1.525c-2.565,-0.624 -4.576,-1.387 -6.101,-2.427c-1.525,-1.04 -2.704,-2.08 -3.536,-3.189c-0.832,-1.178 -1.386,-2.357 -1.664,-3.536c-0.208,-1.178 -0.346,-2.288 -0.346,-3.328c-0,-2.01 0.416,-3.813 1.248,-5.477c0.901,-1.664 2.01,-3.05 3.397,-4.229c1.456,-1.178 3.05,-2.149 4.922,-2.773c1.872,-0.624 3.883,-0.971 5.893,-0.971c3.814,0 7.072,0.902 9.637,2.774c2.565,1.802 4.299,4.229 5.2,7.349c0.139,0.485 0.208,1.04 0.208,1.594c0,0.763 -0.208,1.456 -0.693,2.08c-0.486,0.555 -1.318,0.832 -2.496,0.832c-0.624,0 -1.179,-0.139 -1.803,-0.485c-0.554,-0.278 -0.97,-0.832 -1.178,-1.733c-0.624,-2.219 -1.664,-3.814 -3.259,-4.784c-1.594,-0.971 -3.466,-1.456 -5.685,-1.456c-1.179,-0 -2.288,0.138 -3.397,0.485c-1.04,0.347 -2.011,0.901 -2.843,1.456c-0.832,0.624 -1.525,1.387 -2.01,2.288c-0.486,0.901 -0.694,1.872 -0.694,2.981c0,0.485 0.07,1.04 0.208,1.664c0.139,0.624 0.416,1.248 0.902,1.872c0.485,0.624 1.178,1.248 2.08,1.733c0.901,0.555 2.079,1.04 3.605,1.387l6.24,1.525c4.09,1.04 7.279,2.635 9.498,4.853c2.288,2.219 3.397,4.992 3.397,8.251c-0,1.941 -0.347,3.743 -1.109,5.477c-0.694,1.733 -1.734,3.258 -3.12,4.575c-1.317,1.318 -3.051,2.358 -5.061,3.12c-2.011,0.763 -4.229,1.179 -6.795,1.179c-4.229,-0 -7.695,-1.04 -10.399,-3.051c-2.704,-2.01 -4.576,-4.506 -5.547,-7.557c-0.138,-0.485 -0.208,-0.901 -0.208,-1.386c0,-0.971 0.347,-1.733 0.971,-2.219c0.624,-0.485 1.387,-0.762 2.219,-0.762c0.693,-0 1.317,0.208 1.802,0.624c0.485,0.485 0.901,1.04 1.109,1.664Z" style="fill:#09a3c7;fill-rule:nonzero;"/></g><g><path d="M419.871,242.608c-0.832,-0 -1.525,-0.278 -2.149,-0.902c-0.624,-0.554 -0.901,-1.247 -0.901,-2.149c-0,-0.832 0.277,-1.525 0.901,-2.08c0.624,-0.624 1.317,-0.901 2.149,-0.901l30.367,0c0.832,0 1.525,0.277 2.149,0.901c0.624,0.555 0.902,1.248 0.902,2.08c-0,0.902 -0.278,1.595 -0.902,2.149c-0.624,0.624 -1.317,0.902 -2.149,0.902l-11.925,-0l0,38.825c0,0.901 -0.277,1.664 -0.901,2.288c-0.624,0.624 -1.456,0.97 -2.357,0.97c-0.902,0 -1.664,-0.346 -2.288,-0.97c-0.624,-0.624 -0.902,-1.387 -0.902,-2.288l0,-38.825l-11.994,-0Z" style="fill:#09a3c7;fill-rule:nonzero;"/></g><g><path d="M456.062,260.564c-0,-3.397 0.624,-6.517 1.872,-9.498c1.248,-2.981 2.981,-5.616 5.13,-7.834c2.149,-2.219 4.645,-3.952 7.626,-5.269c2.912,-1.318 6.102,-1.942 9.499,-1.942c3.397,0 6.586,0.624 9.567,1.942c2.982,1.317 5.547,3.05 7.696,5.269c2.149,2.218 3.883,4.853 5.13,7.834c1.248,2.981 1.872,6.101 1.872,9.498c0,3.398 -0.624,6.587 -1.872,9.568c-1.247,2.981 -2.981,5.546 -5.13,7.765c-2.149,2.219 -4.714,3.952 -7.696,5.269c-2.981,1.248 -6.17,1.872 -9.567,1.872c-3.397,-0 -6.587,-0.624 -9.568,-1.872c-2.912,-1.317 -5.477,-3.05 -7.626,-5.269c-2.149,-2.219 -3.813,-4.784 -5.061,-7.765c-1.248,-2.981 -1.872,-6.17 -1.872,-9.568Zm6.447,0c0,2.566 0.416,4.923 1.318,7.141c0.901,2.219 2.218,4.16 3.744,5.824c1.664,1.595 3.535,2.912 5.615,3.883c2.219,0.901 4.507,1.386 7.003,1.386c2.496,0 4.853,-0.485 7.002,-1.386c2.149,-0.971 4.091,-2.288 5.685,-3.883c1.595,-1.664 2.773,-3.605 3.744,-5.824c0.901,-2.218 1.317,-4.575 1.317,-7.141c0,-2.565 -0.416,-4.922 -1.317,-7.141c-0.971,-2.218 -2.149,-4.16 -3.744,-5.823c-1.594,-1.664 -3.536,-2.982 -5.685,-3.883c-2.149,-0.971 -4.506,-1.456 -7.002,-1.456c-2.496,0 -4.784,0.485 -6.933,1.456c-2.15,0.901 -4.021,2.219 -5.616,3.883c-1.595,1.663 -2.843,3.605 -3.744,5.823c-0.901,2.219 -1.387,4.576 -1.387,7.141Z" style="fill:#09a3c7;fill-rule:nonzero;"/></g><g><path d="M520.679,242.608l0,17.818l11.37,-0c1.456,-0 2.635,-0.278 3.675,-0.763c1.04,-0.485 1.872,-1.179 2.496,-2.011c0.624,-0.831 1.109,-1.802 1.386,-2.842c0.278,-1.04 0.416,-2.149 0.416,-3.259c0,-1.109 -0.138,-2.218 -0.416,-3.258c-0.277,-1.04 -0.693,-2.011 -1.317,-2.843c-0.624,-0.832 -1.456,-1.525 -2.426,-2.01c-0.971,-0.555 -2.15,-0.832 -3.536,-0.832l-11.648,-0Zm6.101,23.849l-6.17,0l-0,14.976c-0,0.901 -0.277,1.733 -0.901,2.357c-0.624,0.624 -1.456,0.901 -2.358,0.901c-0.901,0 -1.664,-0.277 -2.288,-0.901c-0.624,-0.624 -0.901,-1.456 -0.901,-2.357l0,-42.084c0,-0.762 0.277,-1.456 0.832,-1.941c0.485,-0.555 1.109,-0.832 1.872,-0.832l15.669,0c2.496,0 4.645,0.416 6.447,1.317c1.803,0.832 3.259,1.942 4.438,3.328c1.109,1.456 1.941,3.051 2.495,4.853c0.486,1.803 0.763,3.605 0.763,5.477c0,1.734 -0.208,3.467 -0.693,5.2c-0.486,1.664 -1.179,3.189 -2.149,4.507c-1.04,1.317 -2.288,2.426 -3.883,3.328c-1.595,0.97 -3.536,1.455 -5.754,1.663l9.359,13.312c0.486,0.763 0.694,1.594 0.624,2.496c-0.138,0.832 -0.624,1.525 -1.386,2.01c-0.763,0.555 -1.526,0.763 -2.358,0.624c-0.901,-0.208 -1.594,-0.693 -2.149,-1.456l-11.509,-16.778Z" style="fill:#09a3c7;fill-rule:nonzero;"/></g><g><path d="M564.842,263.892l-0,14.421l19.967,-0c0.832,-0 1.525,0.277 2.149,0.832c0.624,0.624 0.901,1.317 0.901,2.218c0,0.832 -0.277,1.526 -0.901,2.08c-0.624,0.624 -1.317,0.902 -2.149,0.902l-23.157,-0c-0.901,-0 -1.664,-0.347 -2.288,-0.971c-0.624,-0.624 -0.97,-1.456 -0.97,-2.357l-0,-41.113c-0,-0.901 0.346,-1.733 0.97,-2.357c0.624,-0.624 1.387,-0.971 2.288,-0.971l22.325,0c0.832,0 1.525,0.277 2.149,0.832c0.624,0.624 0.901,1.317 0.901,2.149c0,0.902 -0.277,1.595 -0.901,2.149c-0.624,0.624 -1.317,0.902 -2.149,0.902l-19.135,-0l-0,15.252l16.5,0c0.832,0 1.525,0.278 2.149,0.832c0.624,0.624 0.902,1.318 0.902,2.219c-0,0.832 -0.278,1.525 -0.902,2.08c-0.624,0.624 -1.317,0.901 -2.149,0.901l-16.5,0Z" style="fill:#09a3c7;fill-rule:nonzero;"/></g></g><g><g><path d="M293.97,302.034c-0,1.834 -0.499,3.365 -1.514,4.593c-0.998,1.228 -2.366,1.834 -4.104,1.834c-1.739,-0 -3.107,-0.624 -4.121,-1.852c-1.014,-1.228 -1.513,-2.759 -1.513,-4.575c-0,-1.834 0.499,-3.365 1.513,-4.593c0.998,-1.21 2.366,-1.816 4.121,-1.816c1.754,0 3.122,0.606 4.121,1.834c0.998,1.21 1.497,2.741 1.497,4.575Zm-7.953,-3.365c-0.579,0.819 -0.869,1.941 -0.869,3.365c0,1.406 0.29,2.528 0.869,3.365c0.596,0.836 1.369,1.246 2.351,1.246c0.966,-0 1.738,-0.41 2.318,-1.246c0.579,-0.837 0.869,-1.959 0.869,-3.365c-0,-1.424 -0.29,-2.546 -0.869,-3.365c-0.564,-0.818 -1.336,-1.228 -2.318,-1.246c-0.982,0 -1.771,0.41 -2.351,1.246Z" style="fill:#6e6f73;fill-rule:nonzero;"/></g><g><path d="M296.062,295.839l5.505,0.018c1.175,-0 2.109,0.302 2.785,0.908c0.692,0.605 1.03,1.406 1.03,2.421c0,0.943 -0.273,1.762 -0.804,2.421c-0.532,0.658 -1.304,1.05 -2.302,1.193l3.879,5.465l-2.753,-0l-3.734,-5.394l-1.207,-0l-0,5.394l-2.399,-0l0,-12.426Zm2.383,5.163l3.122,-0c0.499,-0 0.87,-0.143 1.095,-0.428c0.241,-0.302 0.354,-0.747 0.354,-1.37c0,-0.552 -0.096,-0.944 -0.322,-1.158c-0.209,-0.213 -0.579,-0.32 -1.127,-0.32l-3.122,-0l-0,3.276Z" style="fill:#6e6f73;fill-rule:nonzero;"/></g><g><path d="M306.622,295.821l10.978,0l0,1.869l-4.298,0l0,10.557l-2.382,-0l0,-10.557l-4.298,0l0,-1.869Z" style="fill:#6e6f73;fill-rule:nonzero;"/></g><g><path d="M326.067,295.821l2.383,0l-0,12.426l-2.383,-0l0,-5.536l-4.958,-0l0,5.536l-2.382,-0l-0,-12.426l2.382,0l0,5.02l4.958,0l0,-5.02Z" style="fill:#6e6f73;fill-rule:nonzero;"/></g><g><path d="M342.101,302.034c-0,1.834 -0.499,3.365 -1.514,4.593c-0.998,1.228 -2.366,1.834 -4.104,1.834c-1.739,-0 -3.107,-0.624 -4.121,-1.852c-1.014,-1.228 -1.513,-2.759 -1.513,-4.575c-0,-1.834 0.499,-3.365 1.513,-4.593c0.998,-1.21 2.366,-1.816 4.121,-1.816c1.754,0 3.122,0.606 4.121,1.834c0.998,1.21 1.497,2.741 1.497,4.575Zm-7.953,-3.365c-0.579,0.819 -0.869,1.941 -0.869,3.365c0,1.406 0.29,2.528 0.869,3.365c0.596,0.836 1.369,1.246 2.351,1.246c0.966,-0 1.738,-0.41 2.318,-1.246c0.579,-0.837 0.869,-1.959 0.869,-3.365c-0,-1.424 -0.29,-2.546 -0.869,-3.365c-0.564,-0.818 -1.336,-1.228 -2.318,-1.246c-0.982,0 -1.771,0.41 -2.351,1.246Z" style="fill:#6e6f73;fill-rule:nonzero;"/></g><g><path d="M344,295.821l5.232,0c1.239,0 2.205,0.321 2.929,0.961c0.709,0.624 1.063,1.478 1.063,2.546c-0,1.104 -0.354,2.03 -1.046,2.759c-0.693,0.73 -1.675,1.104 -2.946,1.104l-2.833,0l-0,5.056l-2.399,-0l0,-12.426Zm2.399,5.501l2.591,-0c0.644,0.018 1.111,-0.142 1.401,-0.481c0.289,-0.338 0.418,-0.836 0.386,-1.495c-0.032,-0.623 -0.177,-1.068 -0.451,-1.3c-0.257,-0.231 -0.66,-0.356 -1.223,-0.356l-2.704,0l-0,3.632Z" style="fill:#6e6f73;fill-rule:nonzero;"/></g><g><path d="M355.381,295.821l9.046,0.018l0,1.869l-6.648,0l0,3.151l5.425,0l0,1.869l-5.425,0l0,3.65l6.793,-0l0,1.869l-9.191,-0l-0,-12.426Z" style="fill:#6e6f73;fill-rule:nonzero;"/></g><g><path d="M366.278,295.821l4.894,0c1.738,0 3.075,0.57 4.008,1.727c0.918,1.139 1.385,2.635 1.385,4.486c-0,0.837 -0.113,1.638 -0.338,2.385c-0.242,0.73 -0.564,1.389 -0.998,1.977c-0.435,0.569 -1.015,1.014 -1.707,1.352c-0.692,0.339 -1.481,0.499 -2.35,0.499l-4.894,-0l0,-12.426Zm2.383,10.557l2.527,-0c0.934,-0 1.658,-0.392 2.157,-1.157c0.515,-0.784 0.773,-1.852 0.773,-3.187c-0,-2.884 -0.982,-4.326 -2.946,-4.326l-2.511,0l-0,8.67Z" style="fill:#6e6f73;fill-rule:nonzero;"/></g><g><rect x="378.754" y="295.839" width="2.382" height="12.426" style="fill:#6e6f73;"/></g><g><path d="M391.873,303.814l2.351,0.463c-0.274,1.228 -0.854,2.225 -1.755,3.009c-0.885,0.783 -1.996,1.175 -3.348,1.175c-1.739,-0 -3.107,-0.624 -4.121,-1.852c-1.014,-1.228 -1.513,-2.759 -1.513,-4.575c-0,-1.834 0.499,-3.365 1.497,-4.593c1.014,-1.21 2.382,-1.816 4.137,-1.816c1.352,0 2.463,0.392 3.348,1.175c0.885,0.766 1.465,1.763 1.738,2.991l-2.318,0.445c-0.241,-0.979 -0.579,-1.691 -1.03,-2.136c-0.434,-0.445 -1.03,-0.677 -1.754,-0.677c-0.982,0 -1.771,0.41 -2.351,1.229c-0.579,0.836 -0.869,1.958 -0.869,3.382c0,1.406 0.29,2.51 0.869,3.347c0.596,0.836 1.369,1.264 2.335,1.264c0.724,-0 1.303,-0.232 1.738,-0.695c0.451,-0.445 0.805,-1.157 1.046,-2.136Z" style="fill:#6e6f73;fill-rule:nonzero;"/></g><g><path d="M401.66,302.96l-2.479,-0.552c-1.159,-0.232 -1.996,-0.57 -2.527,-1.015c-0.66,-0.552 -0.982,-1.264 -0.982,-2.172c0,-0.783 0.242,-1.459 0.709,-2.029c0.466,-0.552 1.062,-0.961 1.754,-1.211c0.692,-0.231 1.449,-0.356 2.27,-0.356c1.143,0 2.173,0.267 3.107,0.784c0.933,0.516 1.545,1.157 1.835,1.922l-2.286,0.463c-0.531,-0.943 -1.417,-1.424 -2.64,-1.424c-0.757,-0 -1.336,0.16 -1.739,0.463c-0.402,0.302 -0.579,0.765 -0.563,1.388c0.016,0.677 0.483,1.104 1.368,1.264l2.56,0.517c0.241,0.053 0.467,0.106 0.676,0.16c0.193,0.053 0.483,0.178 0.869,0.356c0.37,0.178 0.692,0.374 0.95,0.605c0.241,0.231 0.467,0.57 0.676,0.979c0.209,0.41 0.306,0.872 0.306,1.389c-0,0.587 -0.097,1.103 -0.306,1.566c-0.193,0.463 -0.451,0.837 -0.773,1.122c-0.322,0.302 -0.692,0.534 -1.127,0.73c-0.418,0.196 -0.837,0.338 -1.255,0.409c-0.435,0.089 -0.869,0.125 -1.304,0.125c-0.435,-0 -0.837,-0.018 -1.207,-0.054c-0.371,-0.035 -0.789,-0.124 -1.272,-0.267c-0.499,-0.124 -0.918,-0.302 -1.288,-0.534c-0.37,-0.231 -0.724,-0.552 -1.062,-0.979c-0.338,-0.427 -0.596,-0.926 -0.757,-1.495l2.302,-0.463c0.145,0.427 0.354,0.783 0.596,1.068c0.241,0.303 0.531,0.516 0.837,0.641c0.306,0.125 0.612,0.214 0.901,0.267c0.274,0.053 0.596,0.071 0.95,0.071c1.545,0 2.318,-0.712 2.318,-2.136c0,-0.855 -0.467,-1.389 -1.417,-1.602Z" style="fill:#6e6f73;fill-rule:nonzero;"/></g><g><path d="M419.19,308.567l-0.37,-0.712c-0.789,0.57 -1.674,0.855 -2.656,0.855c-1.207,-0 -2.173,-0.374 -2.881,-1.14c-0.693,-0.765 -1.047,-1.726 -1.047,-2.919c0,-1.495 0.902,-2.866 2.688,-4.112c-0.466,-0.944 -0.692,-1.816 -0.692,-2.617c0,-0.748 0.258,-1.389 0.773,-1.923c0.531,-0.534 1.175,-0.801 1.964,-0.801c0.853,0 1.529,0.267 1.996,0.783c0.467,0.499 0.676,1.157 0.644,1.941c-0.048,0.73 -0.322,1.388 -0.837,1.958c-0.322,0.338 -0.773,0.694 -1.336,1.086l1.706,3.151c0.274,-0.427 0.483,-0.801 0.628,-1.104l2.012,0.392c-0.193,0.516 -0.419,1.032 -0.66,1.513c-0.177,0.409 -0.451,0.89 -0.789,1.424l1.191,2.225l-2.334,0Zm-1.239,-2.385l-2.173,-3.988c-0.805,0.73 -1.208,1.549 -1.208,2.457c0,0.765 0.161,1.335 0.483,1.709c0.322,0.374 0.757,0.552 1.288,0.552c0.596,-0 1.127,-0.249 1.61,-0.73Zm-0.982,-9.293c-0.177,0.018 -0.322,0.107 -0.435,0.267c-0.112,0.178 -0.161,0.428 -0.161,0.766c0,0.48 0.129,0.979 0.37,1.495c0.5,-0.481 0.773,-0.997 0.805,-1.513c0.049,-0.677 -0.145,-1.015 -0.579,-1.015Z" style="fill:#6e6f73;fill-rule:nonzero;"/></g><g><path d="M434.596,302.96l-2.479,-0.552c-1.159,-0.232 -1.997,-0.57 -2.528,-1.015c-0.66,-0.552 -0.982,-1.264 -0.982,-2.172c0,-0.783 0.242,-1.459 0.709,-2.029c0.466,-0.552 1.062,-0.961 1.754,-1.211c0.692,-0.231 1.449,-0.356 2.27,-0.356c1.143,0 2.173,0.267 3.107,0.784c0.933,0.516 1.545,1.157 1.835,1.922l-2.286,0.463c-0.531,-0.943 -1.417,-1.424 -2.64,-1.424c-0.757,-0 -1.336,0.16 -1.738,0.463c-0.403,0.302 -0.58,0.765 -0.564,1.388c0.016,0.677 0.483,1.104 1.368,1.264l2.56,0.517c0.241,0.053 0.467,0.106 0.676,0.16c0.193,0.053 0.483,0.178 0.869,0.356c0.37,0.178 0.692,0.374 0.95,0.605c0.241,0.231 0.467,0.57 0.676,0.979c0.209,0.41 0.306,0.872 0.306,1.389c-0,0.587 -0.097,1.103 -0.306,1.566c-0.193,0.463 -0.451,0.837 -0.773,1.122c-0.322,0.302 -0.692,0.534 -1.126,0.73c-0.419,0.196 -0.838,0.338 -1.256,0.409c-0.435,0.089 -0.869,0.125 -1.304,0.125c-0.435,-0 -0.837,-0.018 -1.207,-0.054c-0.37,-0.035 -0.789,-0.124 -1.272,-0.267c-0.499,-0.124 -0.917,-0.302 -1.288,-0.534c-0.37,-0.231 -0.724,-0.552 -1.062,-0.979c-0.338,-0.427 -0.596,-0.926 -0.757,-1.495l2.302,-0.463c0.145,0.427 0.354,0.783 0.596,1.068c0.241,0.303 0.531,0.516 0.837,0.641c0.306,0.125 0.612,0.214 0.901,0.267c0.274,0.053 0.596,0.071 0.95,0.071c1.545,0 2.318,-0.712 2.318,-2.136c0,-0.855 -0.467,-1.389 -1.416,-1.602Z" style="fill:#6e6f73;fill-rule:nonzero;"/></g><g><path d="M441.147,295.821l5.232,0c1.239,0 2.205,0.321 2.93,0.961c0.708,0.624 1.062,1.478 1.062,2.546c0,1.104 -0.354,2.03 -1.046,2.759c-0.692,0.73 -1.674,1.104 -2.946,1.104l-2.833,0l-0,5.056l-2.399,-0l0,-12.426Zm2.399,5.501l2.592,-0c0.643,0.018 1.11,-0.142 1.4,-0.481c0.29,-0.338 0.419,-0.836 0.386,-1.495c-0.032,-0.623 -0.177,-1.068 -0.45,-1.3c-0.258,-0.231 -0.66,-0.356 -1.224,-0.356l-2.704,0l-0,3.632Z" style="fill:#6e6f73;fill-rule:nonzero;"/></g><g><path d="M462.879,302.034c-0,1.834 -0.499,3.365 -1.513,4.593c-0.998,1.228 -2.367,1.834 -4.105,1.834c-1.739,-0 -3.107,-0.624 -4.121,-1.852c-1.014,-1.228 -1.513,-2.759 -1.513,-4.575c-0,-1.834 0.499,-3.365 1.513,-4.593c0.998,-1.21 2.366,-1.816 4.121,-1.816c1.754,0 3.123,0.606 4.121,1.834c0.998,1.21 1.497,2.741 1.497,4.575Zm-7.952,-3.365c-0.58,0.819 -0.87,1.941 -0.87,3.365c0,1.406 0.29,2.528 0.87,3.365c0.595,0.836 1.368,1.246 2.35,1.246c0.966,-0 1.738,-0.41 2.318,-1.246c0.579,-0.837 0.869,-1.959 0.869,-3.365c0,-1.424 -0.29,-2.546 -0.869,-3.365c-0.563,-0.818 -1.336,-1.228 -2.318,-1.246c-0.982,0 -1.771,0.41 -2.35,1.246Z" style="fill:#6e6f73;fill-rule:nonzero;"/></g><g><path d="M464.81,295.839l5.506,0.018c1.175,-0 2.109,0.302 2.785,0.908c0.692,0.605 1.03,1.406 1.03,2.421c-0,0.943 -0.274,1.762 -0.805,2.421c-0.531,0.658 -1.304,1.05 -2.302,1.193l3.88,5.465l-2.753,-0l-3.735,-5.394l-1.207,-0l-0,5.394l-2.399,-0l0,-12.426Zm2.383,5.163l3.123,-0c0.499,-0 0.869,-0.143 1.094,-0.428c0.242,-0.302 0.355,-0.747 0.355,-1.37c-0,-0.552 -0.097,-0.944 -0.322,-1.158c-0.21,-0.213 -0.58,-0.32 -1.127,-0.32l-3.123,-0l-0,3.276Z" style="fill:#6e6f73;fill-rule:nonzero;"/></g><g><path d="M475.37,295.821l10.978,0l0,1.869l-4.298,0l0,10.557l-2.382,-0l0,-10.557l-4.298,0l0,-1.869Z" style="fill:#6e6f73;fill-rule:nonzero;"/></g><g><path d="M493.093,302.96l-2.479,-0.552c-1.159,-0.232 -1.996,-0.57 -2.527,-1.015c-0.66,-0.552 -0.982,-1.264 -0.982,-2.172c0,-0.783 0.242,-1.459 0.708,-2.029c0.467,-0.552 1.063,-0.961 1.755,-1.211c0.692,-0.231 1.449,-0.356 2.27,-0.356c1.143,0 2.173,0.267 3.106,0.784c0.934,0.516 1.546,1.157 1.836,1.922l-2.286,0.463c-0.531,-0.943 -1.417,-1.424 -2.64,-1.424c-0.757,-0 -1.336,0.16 -1.739,0.463c-0.402,0.302 -0.579,0.765 -0.563,1.388c0.016,0.677 0.483,1.104 1.368,1.264l2.56,0.517c0.241,0.053 0.466,0.106 0.676,0.16c0.193,0.053 0.483,0.178 0.869,0.356c0.37,0.178 0.692,0.374 0.95,0.605c0.241,0.231 0.467,0.57 0.676,0.979c0.209,0.41 0.306,0.872 0.306,1.389c-0,0.587 -0.097,1.103 -0.306,1.566c-0.193,0.463 -0.451,0.837 -0.773,1.122c-0.322,0.302 -0.692,0.534 -1.127,0.73c-0.418,0.196 -0.837,0.338 -1.255,0.409c-0.435,0.089 -0.87,0.125 -1.304,0.125c-0.435,-0 -0.837,-0.018 -1.207,-0.054c-0.371,-0.035 -0.789,-0.124 -1.272,-0.267c-0.499,-0.124 -0.918,-0.302 -1.288,-0.534c-0.37,-0.231 -0.724,-0.552 -1.062,-0.979c-0.338,-0.427 -0.596,-0.926 -0.757,-1.495l2.302,-0.463c0.145,0.427 0.354,0.783 0.596,1.068c0.241,0.303 0.531,0.516 0.837,0.641c0.305,0.125 0.611,0.214 0.901,0.267c0.274,0.053 0.596,0.071 0.95,0.071c1.545,0 2.318,-0.712 2.318,-2.136c-0,-0.855 -0.467,-1.389 -1.417,-1.602Z" style="fill:#6e6f73;fill-rule:nonzero;"/></g><g><path d="M511.782,295.839l3.139,-0l0,12.426l-2.382,-0l-0,-7.174l-2.286,7.174l-2.189,-0l-2.27,-7.174l-0,7.174l-2.382,-0l-0,-12.426l3.155,-0l2.607,8.296l2.608,-8.296Z" style="fill:#6e6f73;fill-rule:nonzero;"/></g><g><path d="M518.286,295.821l9.046,0.018l0,1.869l-6.648,0l0,3.151l5.425,0l-0,1.869l-5.425,0l0,3.65l6.793,-0l0,1.869l-9.191,-0l-0,-12.426Z" style="fill:#6e6f73;fill-rule:nonzero;"/></g><g><path d="M529.184,295.821l4.893,0c1.739,0 3.075,0.57 4.008,1.727c0.918,1.139 1.385,2.635 1.385,4.486c-0,0.837 -0.113,1.638 -0.338,2.385c-0.242,0.73 -0.564,1.389 -0.998,1.977c-0.435,0.569 -1.014,1.014 -1.707,1.352c-0.692,0.339 -1.481,0.499 -2.35,0.499l-4.893,-0l-0,-12.426Zm2.382,10.557l2.527,-0c0.934,-0 1.658,-0.392 2.157,-1.157c0.515,-0.784 0.773,-1.852 0.773,-3.187c0,-2.884 -0.982,-4.326 -2.946,-4.326l-2.511,0l0,8.67Z" style="fill:#6e6f73;fill-rule:nonzero;"/></g><g><rect x="541.498" y="295.839" width="2.382" height="12.426" style="fill:#6e6f73;"/></g><g><path d="M554.778,303.814l2.35,0.463c-0.273,1.228 -0.853,2.225 -1.754,3.009c-0.886,0.783 -1.996,1.175 -3.349,1.175c-1.738,-0 -3.106,-0.624 -4.12,-1.852c-1.015,-1.228 -1.514,-2.759 -1.514,-4.575c0,-1.834 0.499,-3.365 1.497,-4.593c1.015,-1.21 2.383,-1.816 4.137,-1.816c1.353,0 2.463,0.392 3.349,1.175c0.885,0.766 1.465,1.763 1.738,2.991l-2.318,0.445c-0.241,-0.979 -0.579,-1.691 -1.03,-2.136c-0.435,-0.445 -1.03,-0.677 -1.755,-0.677c-0.982,0 -1.77,0.41 -2.35,1.229c-0.579,0.836 -0.869,1.958 -0.869,3.382c-0,1.406 0.29,2.51 0.869,3.347c0.596,0.836 1.368,1.264 2.334,1.264c0.725,-0 1.304,-0.232 1.739,-0.695c0.451,-0.445 0.805,-1.157 1.046,-2.136Z" style="fill:#6e6f73;fill-rule:nonzero;"/></g><g><rect x="559.366" y="295.839" width="2.382" height="12.426" style="fill:#6e6f73;"/></g><g><path d="M572.341,295.821l2.398,0l0,12.426l-2.511,-0l-4.829,-8.242l-0,8.242l-2.399,-0l0,-12.426l2.479,0l4.862,8.296l-0,-8.296Z" style="fill:#6e6f73;fill-rule:nonzero;"/></g><g><path d="M577.862,295.821l9.046,0.018l0,1.869l-6.648,0l0,3.151l5.425,0l-0,1.869l-5.425,0l0,3.65l6.793,-0l0,1.869l-9.191,-0l-0,-12.426Z" style="fill:#6e6f73;fill-rule:nonzero;"/></g></g></g><path d="M557.148,94.097c-7.969,-7.953 -20.895,-7.939 -28.848,0.03l-43.63,43.722c-7.953,7.969 -7.939,20.895 0.03,28.848c7.969,7.952 20.896,7.939 28.848,-0.03l43.63,-43.722c7.953,-7.97 7.939,-20.896 -0.03,-28.848Z" style="fill:#09a3c7;"/><path d="M562.438,61.84c-7.969,-7.953 -20.896,-7.939 -28.848,0.03l-37.687,37.767c-7.953,7.969 -7.939,20.895 0.03,28.847c7.969,7.953 20.895,7.939 28.848,-0.03l37.687,-37.766c7.953,-7.97 7.939,-20.896 -0.03,-28.848Z" style="fill:#30bfcd;"/><path d="M557.148,94.097c-7.969,-7.953 -20.895,-7.939 -28.848,0.03l-43.63,43.722c-7.953,7.969 -7.939,20.895 0.03,28.848c7.969,7.952 20.896,7.939 28.848,-0.03l43.63,-43.722c7.953,-7.97 7.939,-20.896 -0.03,-28.848Z" style="fill:#09a3c7;"/><path d="M562.438,61.84c-7.969,-7.953 -20.896,-7.939 -28.848,0.03l-37.687,37.767c-7.953,7.969 -7.939,20.895 0.03,28.847c7.969,7.953 20.895,7.939 28.848,-0.03l37.687,-37.766c7.953,-7.97 7.939,-20.896 -0.03,-28.848Z" style="fill:#30bfcd;"/><path d="M330.251,-86.99c-19.316,-19.276 -50.649,-19.243 -69.925,0.074l-151.535,151.854c-19.276,19.316 -19.243,50.649 0.073,69.925c19.317,19.276 50.649,19.243 69.925,-0.074l151.536,-151.854c19.276,-19.316 19.243,-50.649 -0.074,-69.925Z" style="fill:#30bfcd;"/><path d="M264.118,44.467c-19.317,-19.276 -50.649,-19.243 -69.925,0.074l-151.535,151.854c-19.276,19.316 -19.243,50.648 0.073,69.925c19.317,19.276 50.649,19.243 69.925,-0.074l151.535,-151.854c19.277,-19.317 19.244,-50.649 -0.073,-69.925Z" style="fill:#09a3c7;"/><path d="M705.978,284.764c-17.046,-17.009 -44.694,-16.98 -61.703,0.065l-115.154,115.397c-17.01,17.045 -16.981,44.693 0.064,61.703c17.046,17.009 44.694,16.98 61.703,-0.065l115.154,-115.397c17.01,-17.045 16.981,-44.693 -0.064,-61.703Z" style="fill:#30bfcd;"/><path d="M663.973,386.085c-17.045,-17.01 -44.693,-16.981 -61.703,0.064l-115.154,115.397c-17.009,17.045 -16.98,44.693 0.065,61.703c17.045,17.009 44.693,16.98 61.703,-0.065l115.154,-115.397c17.009,-17.045 16.98,-44.693 -0.065,-61.702Z" style="fill:#09a3c7;"/></svg>