<?xml version="1.0" encoding="UTF-8" standalone="no"?><!DOCTYPE svg PUBLIC "-//W3C//DTD SVG 1.1//EN" "http://www.w3.org/Graphics/SVG/1.1/DTD/svg11.dtd"><svg width="100%" height="100%" viewBox="0 0 2060 1596" version="1.1" xmlns="http://www.w3.org/2000/svg" xmlns:xlink="http://www.w3.org/1999/xlink" xml:space="preserve" xmlns:serif="http://www.serif.com/" style="fill-rule:evenodd;clip-rule:evenodd;stroke-linecap:round;stroke-linejoin:round;stroke-miterlimit:1.5;"><path d="M973.148,-2.229c215.4,431.978 -101.305,644.347 -362.076,795.772c-372.276,216.174 -672.666,512.432 -590.058,800.228" style="fill:none;stroke:#fff;stroke-width:3.5px;"/><path d="M1217.52,-2.229c215.4,431.978 -101.305,644.347 -362.076,795.772c-372.276,216.174 -672.665,512.432 -590.058,800.228" style="fill:none;stroke:#2dbdcc;stroke-width:3.5px;"/><path d="M1237.45,-2.229c215.4,431.978 -101.305,644.347 -362.076,795.772c-372.276,216.174 -672.665,512.432 -590.057,800.228" style="fill:none;stroke:#2dbdcc;stroke-width:3.5px;"/><path d="M1257.82,-2.229c215.4,431.978 -101.305,644.347 -362.076,795.772c-372.276,216.174 -672.665,512.432 -590.058,800.228" style="fill:none;stroke:#2dbdcc;stroke-width:3.5px;"/><path d="M1277.56,-2.229c215.4,431.978 -101.305,644.347 -362.076,795.772c-372.276,216.174 -672.665,512.432 -590.058,800.228" style="fill:none;stroke:#2dbdcc;stroke-width:3.5px;"/><path d="M1298.62,-2.229c215.4,431.978 -101.305,644.347 -362.077,795.772c-372.275,216.174 -672.665,512.432 -590.057,800.228" style="fill:none;stroke:#2dbdcc;stroke-width:3.5px;"/><path d="M1319.38,-2.229c215.4,431.978 -101.305,644.347 -362.076,795.772c-372.276,216.174 -672.665,512.432 -590.058,800.228" style="fill:none;stroke:#2dbdcc;stroke-width:3.5px;"/><path d="M1339.23,-2.229c215.4,431.978 -101.305,644.347 -362.076,795.772c-372.276,216.174 -672.665,512.432 -590.058,800.228" style="fill:none;stroke:#2dbdcc;stroke-width:3.5px;"/><path d="M1358.98,-2.229c215.4,431.978 -101.305,644.347 -362.076,795.772c-372.276,216.174 -672.665,512.432 -590.058,800.228" style="fill:none;stroke:#2dbdcc;stroke-width:3.5px;"/><path d="M1381.45,-2.229c215.4,431.978 -101.305,644.347 -362.076,795.772c-372.276,216.174 -672.665,512.432 -590.057,800.228" style="fill:none;stroke:#2dbdcc;stroke-width:3.5px;"/><path d="M1400.75,-2.229c215.4,431.978 -101.305,644.347 -362.076,795.772c-372.276,216.174 -672.665,512.432 -590.057,800.228" style="fill:none;stroke:#2dbdcc;stroke-width:3.5px;"/><path d="M1423.29,-2.229c215.4,431.978 -101.305,644.347 -362.076,795.772c-372.276,216.174 -672.665,512.432 -590.058,800.228" style="fill:none;stroke:#2dbdcc;stroke-width:3.5px;"/><path d="M1442.92,-2.229c215.4,431.978 -101.305,644.347 -362.076,795.772c-372.276,216.174 -672.665,512.432 -590.057,800.228" style="fill:none;stroke:#2dbdcc;stroke-width:3.5px;"/><path d="M1462.2,-2.229c215.4,431.978 -101.305,644.347 -362.076,795.772c-372.276,216.174 -672.665,512.432 -590.057,800.228" style="fill:none;stroke:#2dbdcc;stroke-width:3.5px;"/><path d="M1483.49,-2.229c215.4,431.978 -101.305,644.347 -362.076,795.772c-372.276,216.174 -672.665,512.432 -590.058,800.228" style="fill:none;stroke:#2dbdcc;stroke-width:3.5px;"/><path d="M1502.96,-2.229c215.4,431.978 -101.305,644.347 -362.076,795.772c-372.276,216.174 -672.665,512.432 -590.058,800.228" style="fill:none;stroke:#2dbdcc;stroke-width:3.5px;"/><path d="M1523.09,-2.229c215.4,431.978 -101.305,644.347 -362.076,795.772c-372.276,216.174 -672.666,512.432 -590.058,800.228" style="fill:none;stroke:#2dbdcc;stroke-width:3.5px;"/><path d="M1546.21,-2.229c215.4,431.978 -101.305,644.347 -362.076,795.772c-372.276,216.174 -672.665,512.432 -590.058,800.228" style="fill:none;stroke:#2dbdcc;stroke-width:3.5px;"/><path d="M1566.14,-2.229c215.4,431.978 -101.305,644.347 -362.076,795.772c-372.276,216.174 -672.665,512.432 -590.058,800.228" style="fill:none;stroke:#2dbdcc;stroke-width:3.5px;"/><path d="M1587.5,-2.229c215.4,431.978 -101.305,644.347 -362.076,795.772c-372.276,216.174 -672.665,512.432 -590.058,800.228" style="fill:none;stroke:#2dbdcc;stroke-width:3.5px;"/><path d="M1606.84,-2.229c215.399,431.978 -101.305,644.347 -362.077,795.772c-372.275,216.174 -672.665,512.432 -590.057,800.228" style="fill:none;stroke:#2dbdcc;stroke-width:3.5px;"/><path d="M1626.39,-2.229c215.4,431.978 -101.305,644.347 -362.076,795.772c-372.276,216.174 -672.665,512.432 -590.058,800.228" style="fill:none;stroke:#2dbdcc;stroke-width:3.5px;"/><path d="M1647.6,-2.229c215.4,431.978 -101.305,644.347 -362.076,795.772c-372.276,216.174 -672.665,512.432 -590.057,800.228" style="fill:none;stroke:#2dbdcc;stroke-width:3.5px;"/><path d="M1669.32,-2.229c215.4,431.978 -101.305,644.347 -362.076,795.772c-372.276,216.174 -672.666,512.432 -590.058,800.228" style="fill:none;stroke:#2dbdcc;stroke-width:3.5px;"/><path d="M1689.07,-2.229c215.399,431.978 -101.305,644.347 -362.077,795.772c-372.275,216.174 -672.665,512.432 -590.057,800.228" style="fill:none;stroke:#2dbdcc;stroke-width:3.5px;"/><path d="M1984.4,-2.229c215.4,431.978 -101.305,644.347 -362.076,795.772c-372.276,216.174 -672.665,512.432 -590.058,800.228" style="fill:none;stroke:#fff;stroke-width:3.5px;"/></svg>