<?xml version="1.0" encoding="UTF-8" standalone="no"?><!DOCTYPE svg PUBLIC "-//W3C//DTD SVG 1.1//EN" "http://www.w3.org/Graphics/SVG/1.1/DTD/svg11.dtd"><svg width="100%" height="100%" viewBox="0 0 96 132" version="1.1" xmlns="http://www.w3.org/2000/svg" xmlns:xlink="http://www.w3.org/1999/xlink" xml:space="preserve" xmlns:serif="http://www.serif.com/" style="fill-rule:evenodd;clip-rule:evenodd;stroke-linejoin:round;stroke-miterlimit:2;"><path d="M48,132c-22.529,-23.779 -46.527,-63.651 -47,-84.857c-0.508,-22.813 17.828,-46.907 47,-47.143c28.35,-0.229 48.491,30.591 47,47.202c-2.275,25.341 -22.539,60.352 -47,84.798Z" style="fill:#09a3c7;"/><circle cx="48" cy="49.3" r="32.286" style="fill:#fff;"/><path d="M26.165,37.893c0.012,-0.024 0.024,-0.048 0.037,-0.072c1.815,-3.501 4.905,-7.219 9.452,-9.851c1.884,-1.09 4.475,-2.197 6.876,-2.723c3.026,-0.662 5.698,-0.595 5.698,-0.595c5.446,-0 10.153,3.279 12.597,8.03c1.109,2.156 1.796,4.586 1.796,7.202c-0,0.523 0.02,1.568 -0.025,1.991c-0.295,2.78 -1.307,5.48 -3.14,7.463c-1.476,1.835 -3.737,2.998 -6.127,3.772c-0.032,0.01 -0.064,0.02 -0.096,0.031c1.803,-2.018 1.413,-7.002 0.296,-10.469c-1.796,-5.579 -6.661,-9.08 -11.678,-9.728c-1.248,-0.161 -2.503,-0.224 -3.811,-0.166c-4.481,0.201 -8.655,2.019 -11.814,5.056c-0.021,0.02 -0.041,0.039 -0.061,0.059Z" style="fill:#30bfcd;"/><path d="M59.413,27.439c0.024,0.013 0.048,0.025 0.073,0.038c3.499,1.818 7.213,4.912 9.84,9.461c1.089,1.886 2.194,4.478 2.717,6.88c0.659,3.026 0.589,5.698 0.589,5.698c-0.005,5.445 -3.289,10.15 -8.042,12.589c-2.158,1.107 -4.588,1.791 -7.205,1.789c-0.523,-0.001 -1.568,0.018 -1.99,-0.027c-2.779,-0.298 -5.479,-1.313 -7.46,-3.147c-1.833,-1.479 -2.994,-3.741 -3.765,-6.132c-0.011,-0.032 -0.021,-0.064 -0.032,-0.096c2.017,1.805 7.001,1.421 10.469,0.307c5.58,-1.791 9.087,-6.652 9.739,-11.668c0.163,-1.247 0.227,-2.503 0.17,-3.811c-0.196,-4.481 -2.01,-8.657 -5.044,-11.819c-0.019,-0.021 -0.039,-0.041 -0.059,-0.062Z" style="fill:#09a3c7;"/><path d="M69.934,60.632c-0.013,0.024 -0.025,0.048 -0.037,0.073c-1.804,3.507 -4.881,7.235 -9.419,9.882c-1.88,1.097 -4.468,2.213 -6.867,2.747c-3.024,0.672 -5.696,0.615 -5.696,0.615c-5.445,0.018 -10.164,-3.245 -12.624,-7.987c-1.116,-2.153 -1.811,-4.58 -1.82,-7.197c-0.002,-0.523 -0.026,-1.568 0.018,-1.99c0.285,-2.781 1.288,-5.485 3.114,-7.474c1.47,-1.84 3.727,-3.011 6.114,-3.793c0.032,-0.01 0.064,-0.021 0.096,-0.031c-1.796,2.024 -1.389,7.007 -0.261,10.47c1.816,5.572 6.693,9.057 11.712,9.688c1.248,0.156 2.504,0.215 3.811,0.152c4.481,-0.216 8.649,-2.048 11.797,-5.095c0.021,-0.02 0.041,-0.04 0.062,-0.06Z" style="fill:#30bfcd;"/><path d="M36.536,71.169c-0.024,-0.013 -0.049,-0.025 -0.073,-0.038c-3.494,-1.827 -7.202,-4.929 -9.818,-9.485c-1.084,-1.887 -2.183,-4.483 -2.7,-6.885c-0.652,-3.028 -0.577,-5.7 -0.577,-5.7c0.018,-5.445 3.313,-10.142 8.072,-12.57c2.16,-1.102 4.592,-1.781 7.209,-1.772c0.523,0.002 1.568,-0.015 1.99,0.032c2.779,0.304 5.476,1.325 7.453,3.164c1.829,1.483 2.985,3.748 3.751,6.14c0.01,0.033 0.02,0.065 0.031,0.097c-2.013,-1.81 -6.997,-1.437 -10.468,-0.332c-5.585,1.778 -9.102,6.631 -9.767,11.646c-0.165,1.247 -0.233,2.502 -0.178,3.81c0.185,4.482 1.989,8.662 5.016,11.831c0.019,0.021 0.039,0.041 0.059,0.062Z" style="fill:#09a3c7;"/></svg>